{"glyphs":{"0":{"ha":1179,"x_min":0,"x_max":0,"o":"m 569 1132 b 1139 407 884 1132 1139 882 b 569 -318 1139 -69 884 -318 b 0 407 255 -318 0 -69 b 569 1132 0 882 255 1132 m 569 73 b 742 407 665 73 742 188 b 569 740 742 626 665 740 b 397 407 474 740 397 626 b 569 73 397 188 474 73 "},"1":{"ha":560,"x_min":0,"x_max":0,"o":"m 518 -251 b 491 -278 518 -266 506 -278 l 155 -278 b 128 -251 141 -278 128 -266 l 128 759 l 27 759 b 0 786 12 759 0 771 l 0 1084 b 27 1111 0 1099 12 1111 l 491 1111 b 518 1084 506 1111 518 1099 "},"2":{"ha":1015,"x_min":0,"x_max":0,"o":"m 974 718 b 456 54 974 471 581 195 l 906 54 b 933 27 921 54 933 42 l 933 -251 b 906 -278 933 -266 921 -278 l 27 -278 b 0 -251 12 -278 0 -266 l 0 46 b 5 61 0 51 2 56 b 243 336 26 92 116 216 b 566 710 392 478 566 606 b 412 810 566 812 422 810 b 107 775 237 804 160 787 b 74 799 91 772 76 783 l 43 1084 b 68 1114 42 1099 52 1112 b 475 1132 131 1119 297 1132 b 974 718 668 1132 974 1068 "},"3":{"ha":1033,"x_min":0,"x_max":0,"o":"m 855 460 b 992 143 855 460 992 381 b 428 -318 992 -267 601 -318 b 25 -300 311 -318 101 -305 b 0 -270 10 -299 -1 -285 l 31 17 b 62 41 33 32 47 43 b 389 2 133 31 320 4 b 599 117 406 2 599 5 b 386 241 599 227 441 240 l 252 241 b 225 268 237 241 225 253 l 225 545 b 252 572 225 560 237 572 l 366 572 b 369 573 367 572 368 573 b 527 696 414 573 527 590 b 389 811 527 809 406 812 b 62 773 320 809 133 783 b 31 796 47 770 33 781 l 0 1083 b 25 1113 -1 1098 10 1112 b 428 1132 101 1118 311 1132 b 930 710 601 1132 930 1084 b 855 460 930 532 855 460 "},"4":{"ha":1056,"x_min":0,"x_max":0,"o":"m 27 -28 b 0 -1 12 -28 0 -16 l 0 127 b 0 130 0 128 0 129 l 121 1088 b 148 1111 123 1101 134 1111 l 487 1111 b 514 1084 502 1111 514 1099 l 514 984 b 514 981 514 983 514 982 l 428 324 l 518 324 l 518 633 b 545 660 518 648 530 660 l 905 660 b 932 633 920 660 932 648 l 932 324 l 988 324 b 1015 297 1003 324 1015 312 l 1015 -1 b 988 -28 1015 -16 1003 -28 l 932 -28 l 932 -271 b 905 -298 932 -286 920 -298 l 545 -298 b 518 -271 530 -298 518 -286 l 518 -28 "},"5":{"ha":1031,"x_min":0,"x_max":0,"o":"m 941 1111 b 968 1084 956 1111 968 1099 l 968 786 b 941 759 968 771 956 759 l 430 759 l 430 573 b 989 135 430 573 989 615 b 430 -318 989 -286 581 -318 b 25 -299 343 -318 106 -304 b 0 -270 10 -298 -1 -285 l 21 17 b 55 41 22 34 38 46 b 409 -2 110 26 237 -2 b 583 135 544 -2 583 81 b 404 230 583 189 537 230 b 43 221 297 230 113 224 b 16 248 28 221 16 233 l 16 1084 b 43 1111 16 1099 28 1111 l 941 1111 "},"6":{"ha":1181,"x_min":0,"x_max":0,"o":"m 599 614 b 1140 148 908 614 1140 405 b 559 -318 1140 -110 928 -318 b 0 148 215 -318 0 -110 b 884 1111 0 1093 438 1111 b 911 1084 899 1111 911 1099 l 911 790 b 881 764 911 774 897 762 b 400 585 617 797 433 717 b 599 614 463 604 531 614 m 567 14 b 734 148 673 14 734 74 b 579 281 734 222 667 281 b 407 148 490 281 407 222 b 567 14 407 74 468 14 "},"7":{"ha":1056,"x_min":0,"x_max":0,"o":"m 0 1084 b 27 1111 0 1099 12 1111 l 988 1111 b 1015 1084 1003 1111 1015 1099 l 1015 1061 b 1014 1054 1015 1059 1014 1056 l 627 -278 b 601 -298 624 -290 613 -298 l 255 -298 b 228 -271 240 -298 228 -286 l 228 -254 b 229 -247 228 -252 228 -249 l 532 759 l 27 759 b 0 786 12 759 0 771 l 0 1084 "},"8":{"ha":1139,"x_min":0,"x_max":0,"o":"m 993 422 b 1098 159 1070 356 1098 264 b 549 -318 1098 -99 941 -318 b 0 159 157 -318 0 -99 b 105 422 0 264 28 356 b 0 686 28 489 0 581 b 549 1132 0 944 121 1132 b 1098 686 977 1132 1098 944 b 993 422 1098 581 1070 489 m 552 833 b 391 697 450 833 391 779 b 546 569 391 633 451 569 b 706 697 648 569 706 633 b 552 833 706 779 647 833 m 546 11 b 707 141 648 11 707 60 b 548 271 707 206 643 271 b 392 141 446 271 392 206 b 546 11 392 60 451 11 "},"9":{"ha":1165,"x_min":0,"x_max":0,"o":"m 533 212 b 0 672 229 212 0 418 b 562 1111 0 926 179 1111 b 1124 672 945 1111 1124 926 b 252 -278 1124 -260 693 -277 b 226 -251 238 -278 226 -266 l 226 38 b 256 65 226 54 240 67 b 730 241 515 32 697 111 b 533 212 667 222 601 212 m 565 793 b 401 661 461 793 401 734 b 554 529 401 588 466 529 b 723 661 641 529 723 588 b 565 793 723 734 662 793 "}," ":{"ha":590,"x_min":0,"x_max":0,"o":""},"!":{"ha":597,"x_min":0,"x_max":0,"o":"m 131 179 b 104 206 116 179 104 191 l 104 1084 b 131 1111 104 1099 116 1111 l 467 1111 b 494 1084 482 1111 494 1099 l 494 206 b 467 179 494 191 482 179 m 131 -278 b 104 -251 116 -278 104 -266 l 104 27 b 131 54 104 42 116 54 l 467 54 b 494 27 482 54 494 42 l 494 -251 b 467 -278 494 -266 482 -278 "},"\"":{"ha":858,"x_min":0,"x_max":0,"o":"m 732 512 b 706 490 731 499 719 490 l 515 490 b 488 512 502 490 490 499 b 465 959 481 561 466 692 b 492 987 465 975 477 987 l 728 987 b 756 959 743 987 756 974 b 732 512 755 692 740 561 m 371 512 b 345 490 369 499 358 490 l 154 490 b 127 512 141 490 129 499 b 104 959 120 561 105 692 b 131 987 104 975 116 987 l 367 987 b 394 959 382 987 394 974 b 371 512 393 692 379 561 "},"#":{"ha":1676,"x_min":0,"x_max":0,"o":"m 222 -278 b 200 -251 207 -278 197 -266 l 249 29 b 131 29 210 29 170 29 b 104 55 117 29 104 40 l 104 329 b 139 356 104 344 125 356 l 307 356 l 337 529 b 200 529 292 529 246 529 b 174 555 186 529 174 540 l 174 829 b 200 856 174 844 186 856 l 395 856 l 439 1105 b 471 1132 442 1120 456 1132 l 807 1132 b 829 1105 821 1132 832 1120 l 785 856 l 1048 856 l 1092 1105 b 1124 1132 1094 1120 1109 1132 l 1459 1132 b 1482 1105 1474 1132 1484 1120 l 1438 856 l 1546 856 b 1573 829 1561 856 1573 844 l 1573 555 b 1546 529 1573 541 1561 529 l 1380 529 l 1350 356 l 1485 356 b 1503 329 1500 356 1503 344 l 1503 55 b 1477 29 1503 41 1492 29 l 1292 29 l 1243 -251 b 1211 -278 1240 -266 1226 -278 l 875 -278 b 853 -251 860 -278 850 -266 l 902 29 l 639 29 l 590 -251 b 558 -278 587 -266 573 -278 m 990 529 l 727 529 l 697 356 l 960 356 "},"$":{"ha":958,"x_min":0,"x_max":0,"o":"m 917 80 b 653 -287 917 -110 839 -233 l 653 -541 b 626 -568 653 -556 641 -568 l 291 -568 b 264 -541 276 -568 264 -556 l 264 -315 b 94 -301 186 -312 126 -305 b 70 -272 79 -299 69 -286 l 96 -1 b 129 23 98 15 113 26 b 374 -9 177 12 275 -7 b 530 102 512 -11 530 77 b 349 259 530 126 514 219 b 0 712 185 300 0 449 b 264 1072 0 894 97 1015 l 264 1334 b 291 1361 264 1349 276 1361 l 627 1361 b 654 1334 642 1361 654 1349 l 654 1107 b 831 1093 729 1103 796 1097 b 855 1064 846 1092 857 1078 l 829 793 b 797 770 828 777 812 766 b 543 801 747 780 643 800 b 388 691 406 804 388 716 b 568 533 388 666 403 574 b 917 80 732 492 917 344 "},"%":{"ha":1388,"x_min":0,"x_max":0,"o":"m 1000 311 b 1285 -52 1157 311 1285 186 b 1000 -414 1285 -289 1157 -414 b 715 -52 843 -414 715 -290 b 1000 311 715 186 843 311 m 1000 -218 b 1086 -52 1048 -218 1086 -161 b 1000 115 1086 58 1048 115 b 914 -52 952 115 914 58 b 1000 -218 914 -161 952 -218 m 389 1200 b 674 837 546 1200 674 1075 b 389 475 674 599 546 475 b 104 837 232 475 104 599 b 389 1200 104 1075 232 1200 m 389 670 b 475 837 437 670 475 728 b 389 1004 475 947 437 1004 b 303 837 341 1004 303 947 b 389 670 303 728 341 670 m 371 -266 b 356 -231 357 -261 351 -245 l 870 1000 b 905 1015 875 1014 891 1021 l 975 986 b 990 950 989 980 996 964 l 476 -281 b 441 -296 471 -295 455 -302 "},"&":{"ha":1832,"x_min":0,"x_max":0,"o":"m 1132 -251 b 1159 -278 1132 -266 1144 -278 l 1494 -278 b 1521 -251 1509 -278 1521 -266 l 1521 239 l 1701 239 b 1728 266 1716 239 1728 251 l 1728 543 b 1701 570 1728 558 1716 570 l 1521 570 l 1521 812 b 1494 839 1521 827 1509 839 l 1159 839 b 1132 812 1144 839 1132 827 l 1132 570 l 730 572 b 727 573 729 572 728 573 b 570 696 682 573 570 590 b 707 811 570 809 690 812 b 1034 773 776 809 963 783 b 1065 796 1049 770 1063 781 l 1096 1083 b 1071 1113 1098 1098 1086 1112 b 668 1132 995 1118 785 1132 b 166 710 495 1132 166 1084 b 241 460 166 532 241 460 b 104 143 241 460 104 381 b 668 -318 104 -267 495 -318 b 1071 -300 785 -318 995 -305 b 1096 -270 1086 -299 1097 -285 l 1065 17 b 1034 41 1063 32 1049 43 b 707 2 963 31 776 4 b 497 117 690 2 497 5 b 710 241 497 227 656 242 l 1132 239 "},"'":{"ha":497,"x_min":0,"x_max":0,"o":"m 371 512 b 345 490 369 499 358 490 l 154 490 b 127 512 141 490 129 499 b 104 959 120 561 105 692 b 131 987 104 975 116 987 l 367 987 b 394 959 382 987 394 974 b 371 512 393 692 379 561 "},"(":{"ha":836,"x_min":0,"x_max":0,"o":"m 706 -548 b 728 -505 728 -548 741 -523 b 494 417 653 -407 494 -132 b 728 1339 494 966 653 1241 b 706 1382 741 1356 728 1382 l 391 1382 b 362 1369 380 1382 370 1377 b 104 417 309 1313 104 1056 b 362 -536 104 -223 309 -480 b 391 -548 370 -544 380 -548 "},")":{"ha":836,"x_min":0,"x_max":0,"o":"m 131 -548 b 110 -505 109 -548 96 -523 b 343 417 184 -407 343 -132 b 110 1339 343 966 184 1241 b 131 1382 96 1356 109 1382 l 446 1382 b 475 1369 457 1382 468 1377 b 733 417 529 1313 733 1056 b 475 -536 733 -223 529 -480 b 446 -548 468 -544 457 -548 "},"*":{"ha":817,"x_min":0,"x_max":0,"o":"m 118 666 b 104 679 110 666 104 672 l 104 816 b 118 829 104 823 110 829 l 211 829 l 145 896 b 145 915 140 901 140 909 l 242 1011 b 261 1011 247 1017 255 1017 l 327 945 l 327 1039 b 340 1052 327 1046 333 1052 l 477 1052 b 491 1039 485 1052 490 1046 l 491 945 l 557 1011 b 576 1011 562 1017 571 1017 l 673 915 b 673 896 678 910 678 901 l 606 829 l 700 829 b 713 816 708 829 713 823 l 713 679 b 700 666 713 672 708 666 l 606 666 l 673 599 b 673 581 677 594 678 586 l 576 484 b 557 484 571 479 562 479 l 491 550 l 491 456 b 477 443 490 449 485 443 l 340 443 b 327 456 333 443 327 449 l 327 550 l 261 484 b 242 484 255 479 247 479 l 145 581 b 145 599 140 586 140 594 l 211 666 l 118 666 "},"+":{"ha":982,"x_min":0,"x_max":0,"o":"m 131 15 b 104 41 117 15 104 27 l 104 315 b 131 342 104 330 117 342 l 328 342 l 328 539 b 354 565 328 554 340 565 l 628 565 b 655 539 643 565 654 554 l 655 342 l 852 342 b 878 315 867 342 878 330 l 878 42 b 852 15 878 27 867 15 l 655 15 l 655 -182 b 628 -209 654 -196 643 -209 l 354 -209 b 328 -182 340 -209 328 -196 l 328 15 l 131 15 "},",":{"ha":601,"x_min":0,"x_max":0,"o":"m 497 -101 b 316 -469 497 -101 516 -296 b 284 -471 307 -477 294 -478 l 220 -428 b 214 -390 208 -420 205 -402 b 267 -294 229 -369 251 -334 b 104 -106 176 -278 107 -201 b 297 96 102 1 190 94 b 497 -101 407 98 497 9 "},"-":{"ha":982,"x_min":0,"x_max":0,"o":"m 131 15 b 104 41 117 15 104 27 l 104 315 b 131 342 104 330 117 342 l 852 342 b 878 315 867 342 878 330 l 878 42 b 852 15 878 27 867 15 l 131 15 "},".":{"ha":601,"x_min":0,"x_max":0,"o":"m 104 -101 b 301 96 104 8 192 96 b 498 -101 410 96 498 8 b 301 -298 498 -210 410 -298 b 104 -101 192 -298 104 -210 "},"/":{"ha":846,"x_min":0,"x_max":0,"o":"m 121 -266 b 106 -231 107 -261 100 -245 l 620 1000 b 655 1015 625 1014 641 1021 l 725 986 b 740 950 739 980 746 964 l 226 -281 b 191 -296 221 -295 205 -302 "},":":{"ha":601,"x_min":0,"x_max":0,"o":"m 104 -101 b 301 96 104 8 192 96 b 498 -101 410 96 498 8 b 301 -298 498 -210 410 -298 b 104 -101 192 -298 104 -210 m 104 396 b 301 593 104 505 192 593 b 498 396 410 593 498 505 b 301 200 498 288 410 200 b 104 396 192 200 104 288 "},";":{"ha":601,"x_min":0,"x_max":0,"o":"m 497 -101 b 316 -469 497 -101 516 -296 b 284 -471 307 -477 294 -478 l 220 -428 b 214 -390 208 -420 205 -402 b 267 -294 229 -369 251 -334 b 104 -106 176 -278 107 -201 b 297 96 102 1 190 94 b 497 -101 407 98 497 9 m 104 396 b 301 593 104 505 192 593 b 498 396 410 593 498 505 b 301 200 498 288 410 200 b 104 396 192 200 104 288 "},"<":{"ha":1071,"x_min":0,"x_max":0,"o":"m 940 -52 b 957 -4 966 -52 977 -19 l 477 372 l 957 747 b 940 796 977 763 966 796 l 643 796 b 617 787 633 796 625 793 l 115 393 b 115 351 101 382 101 361 l 618 -43 b 643 -52 625 -49 634 -52 "},"=":{"ha":1093,"x_min":0,"x_max":0,"o":"m 131 417 b 104 444 117 418 104 429 l 104 718 b 131 744 104 733 117 744 l 963 744 b 989 718 978 744 989 733 l 989 444 b 963 418 989 430 978 418 l 131 417 m 131 1 b 104 28 117 1 104 13 l 104 301 b 131 328 104 316 117 328 l 963 328 b 989 301 978 328 989 316 l 989 28 b 963 1 989 13 978 1 l 131 1 "},">":{"ha":1071,"x_min":0,"x_max":0,"o":"m 131 -52 b 115 -4 106 -52 94 -19 l 594 372 l 115 747 b 131 796 94 763 106 796 l 429 796 b 454 787 438 796 447 793 l 957 393 b 957 351 971 382 971 361 l 454 -43 b 429 -52 446 -49 438 -52 "},"?":{"ha":1000,"x_min":0,"x_max":0,"o":"m 301 -278 b 274 -251 286 -278 274 -266 l 274 27 b 301 54 274 42 286 54 l 710 54 b 737 27 725 54 737 42 l 737 -251 b 710 -278 737 -266 725 -278 m 301 179 b 274 206 286 179 274 191 l 274 476 b 305 503 274 492 288 505 b 348 499 315 501 330 499 b 526 679 472 499 526 548 b 356 822 526 793 414 822 b 211 805 278 822 234 813 b 172 820 196 800 179 806 l 108 935 b 104 948 105 939 104 944 l 104 1054 b 122 1083 104 1067 111 1078 b 454 1132 156 1100 247 1132 b 897 676 649 1132 897 975 b 737 265 897 377 737 265 l 737 206 b 710 179 737 191 725 179 l 301 179 "},"@":{"ha":1726,"x_min":0,"x_max":0,"o":"m 1219 17 l 934 17 l 934 19 b 814 1 896 7 856 1 b 414 447 577 1 388 205 b 780 804 434 636 590 788 b 934 787 834 808 886 802 l 934 788 l 1227 788 b 1249 766 1239 788 1249 778 l 1249 241 b 1335 281 1278 248 1308 259 b 1404 497 1381 316 1404 406 b 922 913 1404 882 1119 913 b 323 406 508 913 323 658 b 486 30 323 260 382 123 b 967 -94 601 -73 768 -116 l 991 -311 b 866 -318 948 -316 906 -318 b 340 -133 607 -318 439 -221 b 104 406 190 1 104 198 b 923 1132 104 756 360 1132 b 1623 497 1381 1132 1623 905 b 1469 107 1623 295 1539 161 b 1219 18 1385 42 1294 21 m 814 290 b 926 403 876 290 926 341 b 814 516 926 465 876 516 b 701 403 752 516 701 465 b 814 290 701 341 751 290 "},"A":{"ha":1421,"x_min":0,"x_max":0,"o":"m 861 1111 b 886 1093 872 1111 882 1104 l 1378 -233 b 1379 -242 1379 -236 1379 -239 l 1379 -251 b 1352 -278 1379 -266 1367 -278 l 1011 -278 b 986 -260 1000 -278 990 -271 l 912 -61 l 468 -61 l 394 -260 b 368 -278 390 -271 380 -278 l 27 -278 b 0 -251 12 -278 0 -266 l 0 -242 b 2 -233 0 -239 1 -236 l 493 1093 b 519 1111 497 1104 507 1111 l 861 1111 m 786 280 l 690 537 l 594 280 "},"B":{"ha":1136,"x_min":0,"x_max":0,"o":"m 980 479 b 1095 165 981 478 1095 358 b 731 -278 1095 -129 922 -278 l 27 -278 b 0 -251 12 -278 0 -266 l 0 1084 b 27 1111 0 1099 12 1111 l 653 1111 b 1025 683 854 1111 1025 967 b 980 479 1025 532 980 479 m 390 596 b 404 582 390 588 396 582 l 529 582 b 631 685 585 582 631 628 b 529 788 631 742 585 788 l 404 788 b 390 774 396 788 390 782 m 592 46 b 695 148 649 46 695 91 b 592 251 695 205 649 251 l 404 251 b 390 237 396 251 390 245 l 390 59 b 404 46 390 52 396 46 l 592 46 "},"C":{"ha":1344,"x_min":0,"x_max":0,"o":"m 1293 -9 b 1297 -47 1304 -18 1307 -36 b 729 -318 1164 -213 959 -318 b 0 407 326 -318 0 6 b 729 1132 0 807 326 1132 b 1296 862 958 1132 1163 1027 b 1292 824 1305 850 1303 833 l 1024 612 b 987 615 1013 603 997 604 b 729 739 925 685 829 739 b 395 407 545 739 395 590 b 729 75 395 223 545 75 b 988 200 829 75 926 129 b 1025 203 998 211 1014 212 "},"D":{"ha":1203,"x_min":0,"x_max":0,"o":"m 554 1111 b 1161 417 889 1111 1161 905 b 555 -278 1161 -71 890 -278 l 27 -278 b 0 -251 12 -278 0 -266 l 0 1084 b 27 1111 0 1099 12 1111 l 554 1111 m 467 51 b 767 418 633 51 767 161 b 467 784 767 675 633 784 l 403 784 b 390 771 396 784 390 778 l 390 64 b 403 51 390 57 396 51 l 467 51 "},"E":{"ha":911,"x_min":0,"x_max":0,"o":"m 27 -278 b 0 -251 12 -278 0 -266 l 0 1084 b 27 1111 0 1099 12 1111 l 843 1111 b 870 1084 858 1111 870 1099 l 870 807 b 843 780 870 792 858 780 l 390 780 l 390 582 l 781 582 b 809 555 796 582 809 570 l 809 278 b 781 251 809 263 796 251 l 390 251 l 390 53 l 843 53 b 870 26 858 53 870 41 l 870 -251 b 843 -278 870 -266 858 -278 l 27 -278 "},"F":{"ha":933,"x_min":0,"x_max":0,"o":"m 865 1111 b 892 1084 880 1111 892 1099 l 892 807 b 865 780 892 792 880 780 l 390 780 l 390 582 l 802 582 b 829 555 817 582 829 570 l 829 278 b 802 251 829 263 817 251 l 390 251 l 390 -251 b 363 -278 390 -266 378 -278 l 27 -278 b 0 -251 12 -278 0 -266 l 0 1084 b 27 1111 0 1099 12 1111 l 865 1111 "},"G":{"ha":1513,"x_min":0,"x_max":0,"o":"m 1444 572 b 1471 545 1459 572 1471 560 l 1471 407 l 1471 407 b 736 -318 1471 6 1142 -318 b 0 407 329 -318 0 6 b 736 1132 0 807 329 1132 b 1321 845 975 1132 1187 1019 b 1316 807 1331 833 1328 816 l 1036 596 b 999 601 1024 587 1007 589 b 729 739 938 684 840 739 b 395 407 544 739 395 590 b 729 75 395 223 545 75 b 1017 241 852 75 960 141 l 690 241 b 663 268 675 241 663 253 l 663 545 b 690 572 663 560 675 572 l 1444 572 "},"H":{"ha":1306,"x_min":0,"x_max":0,"o":"m 874 1084 b 902 1111 874 1099 887 1111 l 1237 1111 b 1265 1084 1252 1111 1265 1099 l 1265 -251 b 1237 -278 1265 -266 1252 -278 l 902 -278 b 875 -251 887 -278 875 -266 l 875 251 l 390 251 l 390 -251 b 363 -278 390 -266 378 -278 l 27 -278 b 0 -251 12 -278 0 -266 l 0 1084 b 27 1111 0 1099 12 1111 l 363 1111 b 390 1084 378 1111 390 1099 l 390 582 l 874 582 l 874 1084 "},"I":{"ha":431,"x_min":0,"x_max":0,"o":"m 27 -278 b 0 -251 12 -278 0 -266 l 0 1084 b 27 1111 0 1099 12 1111 l 363 1111 b 390 1084 378 1111 390 1099 l 390 -251 b 363 -278 390 -266 378 -278 "},"J":{"ha":806,"x_min":0,"x_max":0,"o":"m 0 24 b 24 51 0 38 10 50 b 375 471 237 66 375 274 l 375 1084 b 402 1111 375 1099 387 1111 l 737 1111 b 764 1084 752 1111 764 1099 l 764 382 b 28 -319 764 94 583 -306 b 0 -292 13 -319 0 -307 "},"K":{"ha":1243,"x_min":0,"x_max":0,"o":"m 880 417 b 1203 -250 1050 301 1195 96 b 1175 -278 1203 -265 1190 -278 l 825 -278 b 798 -251 810 -278 798 -266 b 390 239 791 66 648 223 l 390 -251 b 363 -278 390 -266 378 -278 l 27 -278 b 0 -251 12 -278 0 -266 l 0 1084 b 27 1111 0 1099 12 1111 l 363 1111 b 390 1084 378 1111 390 1099 l 390 595 b 798 1084 648 610 790 767 b 825 1111 798 1099 810 1111 l 1175 1111 b 1202 1084 1190 1111 1203 1099 b 880 417 1195 738 1050 532 "},"L":{"ha":869,"x_min":0,"x_max":0,"o":"m 829 -251 b 802 -278 829 -266 817 -278 l 27 -278 b 0 -251 12 -278 0 -266 l 0 1084 b 27 1111 0 1099 12 1111 l 363 1111 b 390 1084 378 1111 390 1099 l 390 46 l 802 46 b 829 19 817 46 829 34 l 829 -251 "},"M":{"ha":1431,"x_min":0,"x_max":0,"o":"m 991 1104 b 1010 1111 996 1109 1003 1111 l 1362 1111 b 1389 1084 1377 1111 1389 1099 l 1389 -251 b 1362 -278 1389 -266 1377 -278 l 1027 -278 b 999 -251 1012 -278 999 -266 l 999 424 l 896 -11 b 870 -32 894 -23 883 -32 l 519 -32 b 493 -11 507 -32 496 -23 l 390 424 l 390 -251 b 363 -278 390 -266 378 -278 l 27 -278 b 0 -251 12 -278 0 -266 l 0 1084 b 27 1111 0 1099 12 1111 l 379 1111 b 398 1104 386 1111 393 1109 b 695 511 525 977 695 511 b 991 1104 695 511 864 977 "},"N":{"ha":1264,"x_min":0,"x_max":0,"o":"m 833 1084 b 860 1111 833 1099 845 1111 l 1196 1111 b 1223 1084 1211 1111 1223 1099 l 1223 -251 b 1196 -278 1223 -266 1211 -278 l 849 -278 b 825 -264 839 -278 830 -272 l 390 506 l 390 -251 b 363 -278 390 -266 378 -278 l 27 -278 b 0 -251 12 -278 0 -266 l 0 1084 b 27 1111 0 1099 12 1111 l 375 1111 b 398 1098 384 1111 393 1106 l 833 397 l 833 1084 "},"O":{"ha":1513,"x_min":0,"x_max":0,"o":"m 736 1132 b 1471 407 1142 1132 1471 807 b 736 -318 1471 6 1142 -318 b 0 407 329 -318 0 6 b 736 1132 0 807 329 1132 m 736 75 b 1072 407 921 75 1072 223 b 736 739 1072 590 921 739 b 399 407 550 739 399 590 b 736 75 399 223 550 75 "},"P":{"ha":1139,"x_min":0,"x_max":0,"o":"m 0 1084 b 27 1111 0 1099 12 1111 l 687 1111 b 1098 614 914 1111 1098 951 b 687 116 1098 276 914 116 l 390 116 l 390 -251 b 363 -278 390 -266 378 -278 l 27 -278 b 0 -251 12 -278 0 -266 m 562 441 b 705 614 641 441 705 506 b 562 787 705 721 641 787 l 403 787 b 390 773 396 787 390 780 l 390 455 b 403 441 390 447 396 441 l 562 441 "},"Q":{"ha":1513,"x_min":0,"x_max":0,"o":"m 1471 407 b 1374 47 1471 276 1436 153 b 1450 -271 1420 -45 1447 -152 b 1423 -298 1451 -286 1438 -298 l 1062 -298 b 1035 -274 1048 -298 1036 -288 b 1034 -256 1035 -268 1034 -262 b 736 -318 943 -296 842 -318 b 0 407 329 -318 0 6 b 736 1132 0 807 329 1132 b 1471 407 1142 1132 1471 807 m 399 407 b 735 75 399 223 550 75 b 808 83 760 75 785 78 b 728 104 783 94 756 102 b 705 131 715 106 705 117 l 705 420 b 732 447 705 435 717 448 b 1069 361 854 444 968 413 b 1072 407 1071 376 1072 391 b 736 739 1072 590 921 739 b 399 407 550 739 399 590 "},"R":{"ha":1147,"x_min":0,"x_max":0,"o":"m 935 199 b 1106 -271 1037 84 1100 -73 b 1078 -298 1106 -286 1093 -298 l 718 -298 b 691 -272 703 -298 692 -286 b 390 84 683 -44 569 73 l 390 -271 b 363 -298 390 -286 378 -298 l 27 -298 b 0 -271 12 -298 0 -286 l 0 1084 b 27 1111 0 1099 12 1111 l 687 1111 b 1098 614 914 1111 1098 951 b 935 199 1098 415 1034 278 m 390 454 b 403 441 390 447 396 441 l 562 441 b 705 602 641 441 705 502 b 562 762 705 701 641 762 l 403 762 b 390 749 396 762 390 756 "},"S":{"ha":958,"x_min":0,"x_max":0,"o":"m 829 794 b 797 770 828 777 813 766 b 543 801 747 780 643 800 b 388 691 406 804 388 716 b 568 533 388 666 403 574 b 917 80 733 493 917 344 b 388 -318 917 -184 766 -318 b 94 -301 250 -318 141 -307 b 70 -272 79 -299 69 -286 l 96 -1 b 129 23 98 15 113 26 b 374 -9 177 12 275 -7 b 530 102 512 -11 530 77 b 349 259 530 126 514 219 b 0 712 185 300 0 449 b 530 1111 0 976 205 1111 b 831 1093 648 1111 777 1099 b 855 1064 846 1092 857 1079 "},"T":{"ha":1094,"x_min":0,"x_max":0,"o":"m 1054 807 b 1027 780 1054 792 1042 780 l 722 780 l 722 -251 b 695 -278 722 -266 710 -278 l 359 -278 b 332 -251 344 -278 332 -266 l 332 780 l 27 780 b 0 807 12 780 0 792 l 0 1084 b 27 1111 0 1099 12 1111 l 1027 1111 b 1054 1084 1042 1111 1054 1099 "},"U":{"ha":1243,"x_min":0,"x_max":0,"o":"m 1175 1111 b 1202 1084 1190 1111 1202 1099 l 1202 250 b 601 -318 1202 -11 1056 -318 b 0 250 146 -318 0 -11 l 0 1084 b 27 1111 0 1099 12 1111 l 363 1111 b 390 1084 378 1111 390 1099 l 390 243 b 601 14 390 138 441 14 b 812 243 761 14 812 138 l 812 1084 b 839 1111 812 1099 824 1111 l 1175 1111 "},"V":{"ha":1419,"x_min":0,"x_max":0,"o":"m 986 1093 b 1011 1111 989 1104 1000 1111 l 1352 1111 b 1379 1084 1367 1111 1379 1099 l 1379 1075 b 1377 1066 1379 1072 1378 1069 l 886 -260 b 861 -278 882 -271 872 -278 l 519 -278 b 493 -260 507 -278 497 -271 l 2 1066 b 0 1075 1 1069 0 1072 l 0 1084 b 27 1111 0 1099 12 1111 l 368 1111 b 393 1093 379 1111 390 1104 l 690 297 m 690 297 "},"W":{"ha":1754,"x_min":0,"x_max":0,"o":"m 1032 1111 b 1058 1090 1045 1111 1056 1102 l 1222 358 l 1324 1088 b 1351 1111 1326 1101 1337 1111 l 1686 1111 b 1713 1080 1703 1111 1715 1097 l 1528 -254 b 1501 -278 1526 -268 1515 -278 l 1135 -278 b 1116 -271 1128 -278 1121 -275 b 857 384 989 -144 857 384 b 597 -271 857 384 724 -144 b 578 -278 592 -275 585 -278 l 212 -278 b 185 -254 198 -278 187 -268 l 0 1080 b 27 1111 -2 1097 11 1111 l 362 1111 b 389 1088 376 1111 387 1101 l 491 358 l 655 1090 b 681 1111 658 1102 669 1111 l 1032 1111 "},"X":{"ha":1301,"x_min":0,"x_max":0,"o":"m 1034 417 b 1259 -250 1146 309 1260 111 b 1232 -278 1259 -265 1247 -278 l 890 -278 b 863 -251 875 -278 863 -266 b 630 259 856 277 644 259 b 396 -251 616 259 404 277 b 369 -278 396 -266 384 -278 l 27 -278 b 0 -250 12 -278 0 -265 b 226 417 0 111 114 309 b 0 1084 114 524 0 722 b 27 1111 0 1099 12 1111 l 370 1111 b 397 1084 384 1111 396 1099 b 630 575 404 557 616 575 b 863 1084 644 575 856 557 b 890 1111 864 1099 876 1111 l 1233 1111 b 1260 1084 1248 1111 1260 1099 b 1034 417 1260 722 1146 524 "},"Y":{"ha":1301,"x_min":0,"x_max":0,"o":"m 630 575 b 863 1084 644 575 856 557 b 890 1111 864 1099 876 1111 l 1233 1111 b 1260 1084 1248 1111 1260 1099 b 825 294 1260 379 825 294 l 825 -251 b 798 -278 825 -266 813 -278 l 462 -278 b 435 -251 447 -278 435 -266 l 435 294 b 0 1084 435 294 0 379 b 27 1111 0 1099 12 1111 l 369 1111 b 396 1084 384 1111 396 1099 b 630 575 404 557 616 575 "},"Z":{"ha":1097,"x_min":0,"x_max":0,"o":"m 1057 -251 b 1030 -278 1057 -266 1045 -278 l 27 -278 b 0 -251 12 -278 0 -266 l 0 -222 b 3 -210 0 -218 1 -213 l 500 779 l 27 779 b 0 807 12 779 0 792 l 0 1084 b 27 1111 0 1099 12 1111 l 1030 1111 b 1057 1084 1045 1111 1057 1099 l 1057 1055 b 1054 1043 1057 1051 1056 1047 l 557 54 l 1030 54 b 1057 27 1045 54 1057 42 l 1057 -251 "},"[":{"ha":976,"x_min":0,"x_max":0,"o":"m 872 -467 b 845 -439 872 -452 860 -439 l 494 -439 l 494 1273 l 845 1273 b 872 1300 860 1273 872 1285 l 872 1598 b 845 1625 872 1613 860 1625 l 131 1625 b 104 1598 116 1625 104 1613 l 104 -765 b 131 -792 104 -780 116 -792 l 845 -792 b 872 -765 860 -792 872 -780 "},"\\":{"ha":846,"x_min":0,"x_max":0,"o":"m 655 -296 b 620 -281 641 -302 625 -295 l 106 950 b 121 986 100 964 107 980 l 191 1015 b 226 1000 205 1021 221 1014 l 740 -231 b 725 -266 746 -245 739 -261 l 655 -296 "},"]":{"ha":976,"x_min":0,"x_max":0,"o":"m 104 -467 b 131 -439 104 -452 116 -439 l 482 -439 l 482 1273 l 131 1273 b 104 1300 116 1273 104 1285 l 104 1598 b 131 1625 104 1613 116 1625 l 845 1625 b 872 1598 860 1625 872 1613 l 872 -765 b 845 -792 872 -780 860 -792 l 131 -792 b 104 -765 116 -792 104 -780 "},"^":{"ha":896,"x_min":0,"x_max":0,"o":"m 433 1593 b 468 1593 443 1602 458 1602 l 784 1315 b 786 1278 795 1306 796 1289 l 671 1141 b 637 1136 663 1131 648 1129 l 449 1284 l 261 1136 b 226 1141 249 1129 234 1131 l 111 1278 b 113 1315 101 1289 102 1306 l 433 1593 "},"_":{"ha":1315,"x_min":0,"x_max":0,"o":"m 131 -610 b 104 -584 117 -610 104 -598 l 104 -310 b 131 -283 104 -295 117 -283 l 1185 -283 b 1212 -310 1200 -283 1212 -295 l 1212 -583 b 1185 -610 1212 -598 1200 -610 l 131 -610 "},"`":{"ha":718,"x_min":0,"x_max":0,"o":"m 608 1277 b 605 1315 617 1289 616 1305 l 288 1589 b 248 1584 276 1599 258 1597 l 109 1394 b 117 1355 100 1381 104 1363 l 458 1136 b 493 1141 469 1129 484 1131 "},"a":{"ha":1076,"x_min":0,"x_max":0,"o":"m 1009 655 b 1036 628 1024 655 1036 643 l 1036 -271 b 1009 -298 1036 -286 1024 -298 l 646 -298 l 646 -296 b 497 -318 599 -310 549 -318 b 3 233 205 -318 -29 -66 b 455 674 28 468 220 655 b 646 653 522 680 587 672 l 646 655 m 497 39 b 637 179 574 39 637 102 b 497 318 637 256 574 318 b 358 179 420 318 358 256 b 497 39 358 102 420 39 "},"b":{"ha":1076,"x_min":0,"x_max":0,"o":"m 581 674 b 1033 234 815 655 1008 468 b 539 -318 1065 -66 831 -318 b 390 -296 487 -318 437 -310 l 390 -298 l 27 -298 b 0 -271 12 -298 0 -286 l 0 1084 b 27 1111 0 1099 12 1111 l 363 1111 b 390 1084 378 1111 390 1099 l 390 653 b 581 674 449 672 514 680 m 539 39 b 678 179 616 39 678 102 b 539 318 678 256 616 318 b 399 179 462 318 399 256 b 539 39 399 102 462 39 "},"c":{"ha":874,"x_min":0,"x_max":0,"o":"m 827 -161 b 823 -196 835 -172 833 -187 b 497 -318 736 -272 622 -318 b 3 236 204 -318 -30 -64 b 442 673 28 464 213 648 b 823 554 588 689 723 641 b 827 519 833 545 835 530 l 683 305 b 644 301 674 292 656 291 b 523 344 612 328 566 344 b 358 179 432 344 358 270 b 523 14 358 88 432 14 b 644 57 566 14 612 30 b 683 52 656 67 674 66 "},"d":{"ha":1076,"x_min":0,"x_max":0,"o":"m 3 233 b 455 674 28 468 221 655 b 646 653 522 680 587 672 l 646 1084 b 673 1111 646 1099 658 1111 l 1009 1111 b 1036 1084 1024 1111 1036 1099 l 1036 -271 b 1009 -298 1036 -286 1024 -298 l 646 -298 l 646 -296 b 497 -318 599 -310 549 -318 b 3 233 205 -318 -29 -66 m 358 179 b 497 39 358 102 420 39 b 637 179 574 39 637 102 b 497 318 637 256 574 318 b 358 179 420 318 358 256 "},"e":{"ha":1035,"x_min":0,"x_max":0,"o":"m 940 402 b 994 174 972 336 991 259 b 973 147 995 161 986 149 l 447 31 b 522 13 469 20 495 13 b 642 56 565 13 610 29 b 681 52 654 66 672 65 l 825 -161 b 821 -197 833 -173 831 -188 b 496 -318 734 -272 621 -318 b 0 180 221 -318 -1 -95 b 0 182 0 181 0 181 b 2 222 0 195 1 209 b 496 676 24 476 236 676 b 940 402 689 676 857 574 m 558 381 b 388 293 487 381 417 345 b 396 283 385 288 390 282 l 653 339 b 655 352 659 341 660 348 b 558 381 630 370 597 381 "},"f":{"ha":858,"x_min":0,"x_max":0,"o":"m 817 832 b 793 805 817 818 807 806 b 576 642 666 797 576 720 l 579 642 l 747 642 b 774 615 762 642 774 630 l 774 342 b 747 315 774 327 762 315 l 579 315 l 579 -251 b 553 -278 579 -266 567 -278 l 222 -278 b 195 -251 207 -278 195 -266 l 195 315 l 27 315 b 0 341 12 315 0 327 l 0 615 b 27 642 0 630 12 642 l 195 642 b 790 1132 195 907 336 1124 b 817 1105 805 1132 817 1120 l 817 832 "},"g":{"ha":1076,"x_min":0,"x_max":0,"o":"m 646 655 l 1009 655 b 1036 628 1023 655 1036 643 l 1036 -297 b 380 -795 1036 -318 1017 -795 b 145 -780 244 -795 176 -786 b 124 -753 133 -777 124 -766 l 124 -438 b 158 -412 124 -420 141 -407 b 341 -442 201 -424 275 -442 b 634 -299 543 -442 611 -353 b 497 -318 591 -311 545 -318 b 3 233 205 -318 -29 -66 b 455 674 28 468 220 655 b 646 653 522 680 586 672 l 646 655 m 497 40 b 637 179 574 40 636 102 b 497 318 637 256 574 318 b 358 179 420 318 358 256 b 497 40 358 102 420 40 "},"h":{"ha":932,"x_min":0,"x_max":0,"o":"m 529 301 b 460 367 529 338 498 367 b 390 302 421 367 390 338 l 390 -251 b 363 -278 390 -266 378 -278 l 27 -278 b 0 -251 12 -278 0 -266 l 0 1105 b 27 1132 0 1120 12 1132 l 363 1132 b 390 1105 378 1132 390 1120 l 390 691 b 456 697 412 694 433 697 b 891 287 696 697 891 513 l 891 -251 b 864 -278 891 -266 879 -278 l 556 -278 b 529 -251 541 -278 529 -266 l 529 301 "},"i":{"ha":431,"x_min":0,"x_max":0,"o":"m 27 -278 b 0 -251 12 -278 0 -266 l 0 628 b 27 655 0 643 12 655 l 363 655 b 390 628 378 655 390 643 l 390 -251 b 363 -278 390 -266 378 -278 m 27 779 b 0 806 12 779 0 791 l 0 1084 b 27 1111 0 1099 12 1111 l 363 1111 b 390 1084 378 1111 390 1099 l 390 806 b 363 779 390 791 378 779 "},"j":{"ha":807,"x_min":0,"x_max":0,"o":"m 0 -437 b 24 -410 0 -423 10 -411 b 376 12 238 -395 376 -186 l 376 627 b 403 654 376 642 388 654 l 739 654 b 767 627 754 654 767 642 l 767 -77 b 28 -780 767 -366 585 -768 b 0 -753 13 -781 0 -769 m 403 779 b 376 806 388 779 376 791 l 376 1084 b 403 1111 376 1099 388 1111 l 739 1111 b 767 1084 754 1111 767 1099 l 767 806 b 739 779 767 791 755 779 "},"k":{"ha":1036,"x_min":0,"x_max":0,"o":"m 818 189 b 995 -250 818 189 988 112 b 968 -278 995 -265 983 -278 l 619 -278 b 592 -251 604 -278 592 -266 b 390 23 586 20 394 23 l 390 -251 b 363 -278 390 -266 378 -278 l 27 -278 b 0 -251 12 -278 0 -266 l 0 1105 b 27 1132 0 1120 12 1132 l 363 1132 b 390 1105 378 1132 390 1120 l 390 354 b 592 649 390 354 586 378 b 618 676 592 664 604 676 l 968 676 b 995 648 983 676 995 664 b 818 189 989 286 818 189 "},"l":{"ha":431,"x_min":0,"x_max":0,"o":"m 27 -278 b 0 -251 12 -278 0 -266 l 0 1105 b 27 1132 0 1120 12 1132 l 363 1132 b 390 1105 378 1132 390 1120 l 390 -251 b 363 -278 390 -266 378 -278 "},"m":{"ha":1472,"x_min":0,"x_max":0,"o":"m 1083 -278 b 1057 -251 1069 -277 1057 -265 l 1057 301 b 1049 333 1057 313 1054 323 b 994 367 1038 353 1018 367 b 932 301 959 367 932 338 l 932 -250 b 904 -278 932 -265 919 -278 l 556 -278 b 530 -251 541 -277 530 -265 l 530 301 b 521 333 530 313 526 323 b 466 367 510 353 490 367 b 404 301 432 367 404 338 l 404 -251 b 377 -278 404 -266 391 -278 l 27 -278 b 0 -251 12 -278 0 -266 l 0 649 b 27 676 0 664 12 676 l 296 676 b 456 696 344 689 397 696 b 716 636 560 696 647 674 b 975 696 785 674 871 696 b 1431 286 1274 696 1431 513 l 1431 -251 b 1404 -278 1431 -266 1419 -278 "},"n":{"ha":953,"x_min":0,"x_max":0,"o":"m 567 -277 b 541 -251 552 -277 541 -265 l 541 302 b 533 333 541 313 538 324 b 477 367 522 353 501 367 b 415 302 443 367 415 338 l 415 -251 b 388 -278 415 -266 403 -278 l 27 -278 b 0 -251 12 -278 0 -266 l 0 649 b 27 676 0 664 12 676 l 296 676 b 456 696 344 689 397 696 b 912 286 756 696 912 513 l 912 -251 b 885 -278 912 -266 900 -278 "},"o":{"ha":1036,"x_min":0,"x_max":0,"o":"m 497 676 b 994 179 772 676 995 453 b 497 -318 994 -96 772 -318 b 0 179 223 -318 0 -96 b 497 676 0 453 223 676 m 497 39 b 637 179 574 39 637 102 b 497 318 637 256 574 318 b 358 179 420 318 358 256 b 497 39 358 102 420 39 "},"p":{"ha":1076,"x_min":0,"x_max":0,"o":"m 1033 124 b 581 -317 1008 -110 815 -297 b 390 -296 514 -322 449 -314 l 390 -726 b 363 -753 390 -741 377 -753 l 27 -753 b 0 -726 12 -753 0 -741 l 0 628 b 27 655 0 643 12 655 l 390 655 l 390 653 b 539 676 437 668 487 676 b 1033 124 831 676 1065 423 m 678 179 b 539 318 678 256 616 318 b 399 179 462 318 399 256 b 539 39 399 102 462 39 b 678 179 616 39 678 102 "},"q":{"ha":1076,"x_min":0,"x_max":0,"o":"m 455 -317 b 3 124 221 -297 28 -110 b 497 676 -29 423 205 676 b 646 653 549 676 599 668 l 646 655 l 1009 655 b 1036 628 1024 655 1036 643 l 1036 -726 b 1009 -753 1036 -741 1024 -753 l 673 -753 b 646 -726 658 -753 646 -741 l 646 -296 b 455 -317 587 -314 522 -322 m 497 318 b 358 179 420 318 358 256 b 497 39 358 102 420 39 b 637 179 574 39 637 102 b 497 318 637 256 574 318 "},"r":{"ha":746,"x_min":0,"x_max":0,"o":"m 415 618 b 642 655 484 641 561 655 b 680 654 655 655 667 655 b 705 627 694 653 705 641 l 705 348 b 675 321 705 332 691 319 b 642 323 664 322 653 323 b 415 216 542 323 456 279 l 415 -251 b 388 -278 415 -266 403 -278 l 27 -278 b 0 -251 12 -278 0 -266 l 0 628 b 27 655 0 643 12 655 l 388 655 b 415 630 402 655 414 644 l 415 618 "},"s":{"ha":728,"x_min":0,"x_max":0,"o":"m 391 695 b 627 678 484 695 582 684 b 651 647 643 676 653 662 l 617 387 b 581 364 615 369 597 358 b 435 395 545 377 484 395 b 372 348 398 395 365 376 b 687 -2 386 293 687 358 b 310 -318 687 -341 310 -318 b 23 -291 213 -318 80 -300 b 0 -259 8 -289 -2 -275 l 43 -1 b 78 21 46 15 62 26 b 265 -13 119 8 196 -13 b 329 29 301 -13 334 -1 b 14 334 320 85 14 20 b 391 695 14 740 391 695 "},"t":{"ha":844,"x_min":0,"x_max":0,"o":"m 776 653 b 803 626 791 653 803 641 l 803 349 b 776 322 803 334 791 322 l 596 322 l 596 -251 b 569 -278 596 -266 584 -278 l 234 -278 b 207 -251 219 -278 207 -266 l 207 323 l 27 323 b 0 350 12 323 0 335 l 0 627 b 27 654 0 642 12 654 l 207 654 l 207 896 b 234 923 207 911 219 923 l 569 923 b 596 896 584 923 596 911 l 596 653 l 776 653 "},"u":{"ha":929,"x_min":0,"x_max":0,"o":"m 345 654 b 371 627 359 653 371 642 l 371 76 b 379 44 371 64 374 54 b 434 10 390 24 411 10 b 497 76 469 10 497 40 l 497 627 b 524 654 497 642 509 654 l 862 655 b 889 628 877 655 889 643 l 889 -270 b 862 -297 889 -285 877 -297 l 615 -298 b 455 -318 567 -311 514 -318 b 0 91 156 -318 0 -135 l 0 627 b 27 654 0 642 12 654 "},"v":{"ha":1185,"x_min":0,"x_max":0,"o":"m 747 639 b 772 655 751 649 761 655 l 1117 655 b 1144 628 1132 655 1144 643 l 1144 611 b 1142 600 1144 607 1144 604 l 774 -261 b 749 -278 770 -271 760 -278 l 395 -278 b 370 -261 384 -278 374 -271 l 2 600 b 0 611 1 604 0 607 l 0 628 b 27 655 0 643 12 655 l 372 655 b 397 639 383 655 393 649 l 572 239 l 747 639 "},"w":{"ha":1511,"x_min":0,"x_max":0,"o":"m 1074 636 b 1100 655 1077 648 1088 655 l 1443 655 b 1470 628 1458 655 1470 643 l 1470 609 b 1469 601 1470 607 1470 604 l 1206 -259 b 1180 -278 1203 -270 1192 -278 l 830 -278 b 804 -259 818 -278 808 -270 l 735 -32 l 666 -259 b 640 -278 662 -270 652 -278 l 290 -278 b 264 -259 278 -278 268 -270 l 1 601 b 0 609 0 604 0 607 l 0 628 b 27 655 0 643 12 655 l 370 655 b 396 636 382 655 392 647 l 465 416 l 534 636 b 560 655 538 647 548 655 l 910 655 b 936 636 922 655 932 647 l 1005 416 l 1074 636 "},"x":{"ha":1036,"x_min":0,"x_max":0,"o":"m 859 189 b 994 -250 859 189 988 112 b 967 -278 995 -265 982 -278 l 618 -278 b 591 -251 603 -278 591 -266 b 497 23 586 20 501 23 b 403 -251 493 23 409 20 b 376 -278 403 -266 391 -278 l 27 -278 b 0 -250 12 -278 0 -265 b 135 189 6 112 135 189 b 0 628 135 189 6 265 b 27 655 0 643 12 655 l 376 655 b 403 628 391 655 403 643 b 497 354 409 358 493 354 b 591 628 501 354 586 358 b 618 655 591 643 603 655 l 967 655 b 994 628 982 655 995 643 b 859 189 988 265 859 189 "},"y":{"ha":1121,"x_min":0,"x_max":0,"o":"m 540 106 b 677 628 544 106 672 90 b 704 655 677 643 689 655 l 1053 655 b 1080 628 1068 655 1080 643 b 69 -768 1068 -653 235 -759 b 41 -741 54 -769 41 -756 l 41 -430 b 62 -404 41 -417 50 -406 b 407 -199 138 -384 407 -309 b 0 628 407 -199 8 -256 b 27 655 0 643 12 655 l 376 655 b 403 628 391 655 403 643 b 540 106 407 90 536 106 "},"z":{"ha":871,"x_min":0,"x_max":0,"o":"m 809 -251 b 782 -278 809 -266 796 -278 l 27 -278 b 0 -251 12 -278 0 -266 l 0 -222 b 3 -210 0 -218 1 -213 l 273 324 l 48 324 b 21 351 33 324 21 336 l 21 628 b 48 655 21 643 33 655 l 802 655 b 829 628 817 655 829 643 l 829 599 b 826 587 829 595 828 591 l 557 54 l 781 54 b 809 27 796 54 809 42 l 809 -251 "},"~":{"ha":1017,"x_min":0,"x_max":0,"o":"m 114 177 b 109 213 103 186 101 202 b 377 386 143 262 241 386 b 614 294 486 386 559 294 b 730 375 664 294 708 345 b 769 380 739 387 757 389 l 903 268 b 910 233 914 259 917 245 b 644 54 881 182 792 54 b 406 149 527 54 464 149 b 288 65 358 149 312 96 b 249 61 278 52 261 51 l 114 177 "},"¡":{"ha":599,"x_min":0,"x_max":0,"o":"m 131 -654 b 104 -627 116 -654 104 -642 l 104 253 b 131 280 104 268 116 280 l 468 280 b 495 253 483 280 495 268 l 495 -627 b 468 -654 495 -642 483 -654 m 131 405 b 104 432 116 405 104 417 l 104 710 b 131 738 104 725 116 738 l 468 738 b 495 710 483 738 495 725 l 495 432 b 468 405 495 417 483 405 "},"¨":{"ha":1057,"x_min":0,"x_max":0,"o":"m 104 1380 b 291 1567 104 1483 188 1567 b 477 1380 394 1567 477 1483 b 291 1194 477 1277 394 1194 b 104 1380 188 1194 104 1277 m 581 1380 b 767 1567 581 1483 664 1567 b 954 1380 870 1567 954 1483 b 767 1194 954 1277 870 1194 b 581 1380 664 1194 581 1277 "},"©":{"ha":1679,"x_min":0,"x_max":0,"o":"m 840 1132 b 1575 407 1246 1132 1575 807 b 840 -318 1575 6 1246 -318 b 104 407 433 -318 104 6 b 840 1132 104 807 433 1132 m 840 -91 b 1345 407 1119 -91 1345 132 b 840 904 1345 681 1119 904 b 335 407 561 904 335 681 b 840 -91 335 132 561 -91 m 1134 199 b 1137 180 1140 194 1141 186 b 853 44 1070 97 968 44 b 488 407 651 44 488 206 b 853 769 488 607 651 769 b 1136 634 967 769 1069 717 b 1134 615 1141 629 1140 620 l 1000 509 b 982 511 995 505 987 505 b 853 573 951 546 902 573 b 686 407 760 573 686 498 b 853 241 686 315 761 241 b 982 303 903 241 951 268 b 1001 305 987 309 995 309 "},"«":{"ha":1382,"x_min":0,"x_max":0,"o":"m 1251 -52 b 1274 -10 1273 -52 1286 -28 l 1030 372 l 1274 754 b 1251 796 1286 772 1273 796 l 933 796 b 899 777 919 796 906 789 l 650 387 b 650 357 644 378 644 366 l 899 -33 b 933 -52 906 -45 919 -52 m 710 -52 b 733 -10 732 -52 744 -28 l 489 372 l 733 754 b 710 796 744 772 731 796 l 392 796 b 358 777 378 796 365 789 l 108 387 b 108 357 103 378 103 366 l 358 -33 b 392 -52 365 -45 378 -52 "},"®":{"ha":1679,"x_min":0,"x_max":0,"o":"m 840 1132 b 1575 407 1246 1132 1575 807 b 840 -318 1575 6 1246 -318 b 104 407 433 -318 104 6 b 840 1132 104 807 433 1132 m 840 -91 b 1345 407 1119 -91 1345 132 b 840 904 1345 681 1119 904 b 335 407 561 904 335 681 b 840 -91 335 132 561 -91 m 1043 303 b 1128 68 1093 245 1125 167 b 1114 54 1128 60 1122 54 l 934 54 b 921 67 927 54 921 60 b 770 245 916 181 860 240 l 770 68 b 756 54 770 60 764 54 l 589 54 b 575 68 581 54 575 60 l 575 745 b 589 759 575 753 581 759 l 918 759 b 1124 510 1032 759 1124 679 b 1043 303 1124 411 1092 342 m 770 430 b 777 424 770 427 773 424 l 856 424 b 928 504 896 424 928 454 b 856 584 928 554 896 584 l 777 584 b 770 578 773 584 770 581 "},"°":{"ha":808,"x_min":0,"x_max":0,"o":"m 405 1007 b 705 717 570 1007 705 877 b 405 428 705 557 570 428 b 104 717 239 428 104 557 b 405 1007 104 877 239 1007 m 405 636 b 489 717 451 636 489 672 b 405 799 489 762 451 799 b 321 717 358 799 321 762 b 405 636 321 672 358 636 "},"´":{"ha":718,"x_min":0,"x_max":0,"o":"m 111 1277 b 113 1315 101 1289 102 1305 l 430 1589 b 470 1584 442 1599 461 1597 l 609 1394 b 601 1355 618 1381 615 1363 l 260 1136 b 226 1141 249 1129 234 1131 "},"»":{"ha":1382,"x_min":0,"x_max":0,"o":"m 131 -52 b 108 -10 110 -52 97 -28 l 352 372 l 108 754 b 131 796 97 772 110 796 l 449 796 b 484 777 463 796 476 789 l 733 387 b 733 357 739 378 739 366 l 484 -33 b 449 -52 476 -45 463 -52 m 672 -52 b 650 -10 651 -52 638 -28 l 894 372 l 650 754 b 672 796 638 772 651 796 l 991 796 b 1025 777 1004 796 1017 789 l 1274 387 b 1274 357 1280 378 1280 366 l 1025 -33 b 991 -52 1018 -45 1005 -52 "},"¿":{"ha":1000,"x_min":0,"x_max":0,"o":"m 700 738 b 727 710 715 738 727 726 l 727 433 b 700 406 727 418 715 406 l 291 406 b 264 433 276 406 264 418 l 264 710 b 291 738 264 726 276 738 m 700 281 b 727 254 715 281 727 269 l 727 -16 b 696 -43 727 -32 712 -45 b 653 -40 685 -41 671 -40 b 475 -219 529 -40 475 -88 b 645 -362 475 -333 587 -362 b 790 -345 723 -362 767 -353 b 829 -360 805 -340 821 -346 l 893 -475 b 897 -489 895 -479 897 -484 l 897 -595 b 879 -623 897 -607 890 -618 b 546 -672 845 -640 754 -672 b 104 -216 351 -672 104 -515 b 264 194 104 83 264 194 l 264 253 b 291 281 264 269 276 281 l 700 281 "},"À":{"ha":1421,"x_min":0,"x_max":0,"o":"m 857 1277 b 854 1315 866 1289 865 1305 l 537 1589 b 497 1584 525 1599 506 1597 l 358 1394 b 366 1355 349 1381 352 1363 l 707 1136 b 742 1141 718 1129 733 1131 m 861 1111 b 886 1093 872 1111 882 1104 l 1378 -233 b 1379 -242 1379 -236 1379 -239 l 1379 -251 b 1352 -278 1379 -266 1367 -278 l 1011 -278 b 986 -260 1000 -278 990 -271 l 912 -61 l 468 -61 l 394 -260 b 368 -278 390 -271 380 -278 l 27 -278 b 0 -251 12 -278 0 -266 l 0 -242 b 2 -233 0 -239 1 -236 l 493 1093 b 519 1111 497 1104 507 1111 l 861 1111 m 786 280 l 690 537 l 594 280 "},"Á":{"ha":1421,"x_min":0,"x_max":0,"o":"m 566 1277 b 569 1315 557 1289 558 1305 l 886 1589 b 926 1584 898 1599 917 1597 l 1065 1394 b 1057 1355 1074 1381 1071 1363 l 716 1136 b 681 1141 705 1129 690 1131 m 861 1111 b 886 1093 872 1111 882 1104 l 1378 -233 b 1379 -242 1379 -236 1379 -239 l 1379 -251 b 1352 -278 1379 -266 1367 -278 l 1011 -278 b 986 -260 1000 -278 990 -271 l 912 -61 l 468 -61 l 394 -260 b 368 -278 390 -271 380 -278 l 27 -278 b 0 -251 12 -278 0 -266 l 0 -242 b 2 -233 0 -239 1 -236 l 493 1093 b 519 1111 497 1104 507 1111 l 861 1111 m 786 280 l 690 537 l 594 280 "},"Â":{"ha":1421,"x_min":0,"x_max":0,"o":"m 674 1593 b 709 1593 684 1602 699 1602 l 1024 1315 b 1027 1278 1036 1306 1037 1289 l 912 1141 b 877 1136 903 1131 889 1129 l 689 1284 l 501 1136 b 467 1141 490 1129 475 1131 l 351 1278 b 354 1315 342 1289 343 1306 l 674 1593 m 861 1111 b 886 1093 872 1111 882 1104 l 1378 -233 b 1379 -242 1379 -236 1379 -239 l 1379 -251 b 1352 -278 1379 -266 1367 -278 l 1011 -278 b 986 -260 1000 -278 990 -271 l 912 -61 l 468 -61 l 394 -260 b 368 -278 390 -271 380 -278 l 27 -278 b 0 -251 12 -278 0 -266 l 0 -242 b 2 -233 0 -239 1 -236 l 493 1093 b 519 1111 497 1104 507 1111 l 861 1111 m 786 280 l 690 537 l 594 280 "},"Ã":{"ha":1421,"x_min":0,"x_max":0,"o":"m 301 1318 b 297 1354 291 1327 289 1342 b 565 1526 331 1402 428 1526 b 802 1435 674 1526 747 1435 b 918 1515 852 1435 896 1486 b 956 1520 927 1527 944 1530 l 1091 1408 b 1098 1374 1101 1400 1104 1385 b 831 1194 1068 1323 979 1194 b 593 1289 715 1194 652 1289 b 475 1205 546 1289 499 1236 b 436 1201 466 1193 448 1191 l 301 1318 m 861 1111 b 886 1093 872 1111 882 1104 l 1378 -233 b 1379 -242 1379 -236 1379 -239 l 1379 -251 b 1352 -278 1379 -266 1367 -278 l 1011 -278 b 986 -260 1000 -278 990 -271 l 912 -61 l 468 -61 l 394 -260 b 368 -278 390 -271 380 -278 l 27 -278 b 0 -251 12 -278 0 -266 l 0 -242 b 2 -233 0 -239 1 -236 l 493 1093 b 519 1111 497 1104 507 1111 l 861 1111 m 786 280 l 690 537 l 594 280 "},"Ä":{"ha":1421,"x_min":0,"x_max":0,"o":"m 264 1380 b 450 1567 264 1483 347 1567 b 637 1380 553 1567 637 1483 b 450 1194 637 1277 553 1194 b 264 1380 347 1194 264 1277 m 740 1380 b 927 1567 740 1483 824 1567 b 1113 1380 1030 1567 1113 1483 b 927 1194 1113 1277 1030 1194 b 740 1380 824 1194 740 1277 m 861 1111 b 886 1093 872 1111 882 1104 l 1378 -233 b 1379 -242 1379 -236 1379 -239 l 1379 -251 b 1352 -278 1379 -266 1367 -278 l 1011 -278 b 986 -260 1000 -278 990 -271 l 912 -61 l 468 -61 l 394 -260 b 368 -278 390 -271 380 -278 l 27 -278 b 0 -251 12 -278 0 -266 l 0 -242 b 2 -233 0 -239 1 -236 l 493 1093 b 519 1111 497 1104 507 1111 l 861 1111 m 786 280 l 690 537 l 594 280 "},"Å":{"ha":1421,"x_min":0,"x_max":0,"o":"m 688 1629 b 913 1412 812 1629 913 1532 b 688 1194 913 1292 812 1194 b 463 1412 564 1194 463 1292 b 688 1629 463 1532 564 1629 m 688 1351 b 751 1412 723 1351 751 1378 b 688 1473 751 1445 723 1473 b 625 1412 653 1473 625 1445 b 688 1351 625 1378 653 1351 m 861 1111 b 886 1093 872 1111 882 1104 l 1378 -233 b 1379 -242 1379 -236 1379 -239 l 1379 -251 b 1352 -278 1379 -266 1367 -278 l 1011 -278 b 986 -260 1000 -278 990 -271 l 912 -61 l 468 -61 l 394 -260 b 368 -278 390 -271 380 -278 l 27 -278 b 0 -251 12 -278 0 -266 l 0 -242 b 2 -233 0 -239 1 -236 l 493 1093 b 519 1111 497 1104 507 1111 l 861 1111 m 786 280 l 690 537 l 594 280 "},"Æ":{"ha":1601,"x_min":0,"x_max":0,"o":"m 1533 1111 b 1560 1084 1548 1111 1560 1099 l 1560 807 b 1533 780 1560 792 1548 780 l 1079 780 l 1079 582 l 1471 582 b 1498 555 1486 582 1498 570 l 1498 278 b 1471 251 1498 263 1486 251 l 1079 251 l 1079 54 l 1533 54 b 1560 26 1548 54 1560 41 l 1560 -251 b 1533 -278 1560 -266 1548 -278 l 717 -278 b 690 -251 702 -278 690 -266 l 690 -61 l 468 -61 l 394 -260 b 368 -278 390 -271 380 -278 l 27 -278 b 0 -251 12 -278 0 -266 l 0 -242 b 2 -233 0 -239 1 -236 l 493 1093 b 519 1111 497 1104 507 1111 m 690 537 l 594 280 l 690 280 "},"Ç":{"ha":1344,"x_min":0,"x_max":0,"o":"m 1293 -9 b 1297 -47 1304 -18 1307 -36 b 767 -317 1171 -203 981 -306 l 761 -345 b 909 -483 761 -345 939 -332 b 705 -625 883 -615 752 -625 b 579 -619 678 -625 604 -621 b 573 -610 574 -619 572 -615 l 598 -520 b 610 -512 599 -514 605 -511 b 718 -526 626 -517 664 -526 b 782 -483 761 -526 778 -500 b 731 -453 785 -466 773 -453 b 618 -456 698 -453 640 -455 b 611 -447 613 -456 610 -452 l 637 -313 b 0 407 278 -268 0 37 b 729 1132 0 807 326 1132 b 1296 862 958 1132 1163 1027 b 1292 824 1305 850 1303 833 l 1024 612 b 987 615 1013 603 997 604 b 729 739 925 685 829 739 b 395 407 545 739 395 590 b 729 75 395 223 545 75 b 988 200 829 75 926 129 b 1025 203 998 211 1014 212 "},"È":{"ha":911,"x_min":0,"x_max":0,"o":"m 27 -277 b 0 -250 12 -277 0 -265 l 0 1084 b 27 1111 0 1099 12 1111 l 843 1111 b 870 1084 858 1111 870 1099 l 870 807 b 843 780 870 792 858 780 l 390 780 l 390 583 l 781 583 b 808 556 796 583 808 571 l 808 279 b 781 252 808 264 796 252 l 390 252 l 390 54 l 843 54 b 870 27 858 54 870 42 l 870 -250 b 843 -277 870 -265 858 -277 l 27 -277 l 27 -277 m 676 1277 b 673 1315 685 1289 684 1305 l 356 1589 b 316 1584 344 1599 326 1597 l 178 1394 b 185 1355 168 1381 172 1363 l 526 1136 b 561 1141 538 1129 552 1131 "},"É":{"ha":911,"x_min":0,"x_max":0,"o":"m 27 -277 b 0 -250 12 -277 0 -265 l 0 1084 b 27 1111 0 1099 12 1111 l 843 1111 b 870 1084 858 1111 870 1099 l 870 807 b 843 780 870 792 858 780 l 390 780 l 390 583 l 781 583 b 808 556 796 583 808 571 l 808 279 b 781 252 808 264 796 252 l 390 252 l 390 54 l 843 54 b 870 27 858 54 870 42 l 870 -250 b 843 -277 870 -265 858 -277 l 27 -277 l 27 -277 m 178 1277 b 180 1315 168 1289 169 1305 l 497 1589 b 537 1584 509 1599 528 1597 l 676 1394 b 668 1355 685 1381 682 1363 l 327 1136 b 293 1141 316 1129 301 1131 "},"Ê":{"ha":911,"x_min":0,"x_max":0,"o":"m 27 -278 b 0 -251 12 -278 0 -266 l 0 1084 b 27 1111 0 1099 12 1111 l 843 1111 b 870 1084 858 1111 870 1099 l 870 807 b 843 780 870 792 858 780 l 390 780 l 390 582 l 781 582 b 809 555 796 582 809 570 l 809 278 b 781 251 809 263 796 251 l 390 251 l 390 53 l 843 53 b 870 26 858 53 870 41 l 870 -251 b 843 -278 870 -266 858 -278 l 27 -278 m 420 1593 b 455 1593 430 1602 445 1602 l 770 1315 b 773 1278 781 1306 783 1289 l 658 1141 b 623 1136 649 1131 635 1129 l 435 1284 l 247 1136 b 213 1141 236 1129 221 1131 l 97 1278 b 100 1315 88 1289 89 1306 l 420 1593 "},"Ë":{"ha":911,"x_min":0,"x_max":0,"o":"m 30 1380 b 217 1567 30 1483 114 1567 b 403 1380 320 1567 403 1483 b 217 1194 403 1277 320 1194 b 30 1380 114 1194 30 1277 m 507 1380 b 693 1567 507 1483 590 1567 b 880 1380 796 1567 880 1483 b 693 1194 880 1277 796 1194 b 507 1380 590 1194 507 1277 m 27 -278 b 0 -251 12 -278 0 -266 l 0 1084 b 27 1111 0 1099 12 1111 l 843 1111 b 870 1084 858 1111 870 1099 l 870 807 b 843 780 870 792 858 780 l 390 780 l 390 582 l 781 582 b 809 555 796 582 809 570 l 809 278 b 781 251 809 263 796 251 l 390 251 l 390 53 l 843 53 b 870 26 858 53 870 41 l 870 -251 b 843 -278 870 -266 858 -278 l 27 -278 "},"Ì":{"ha":432,"x_min":0,"x_max":0,"o":"m 384 1277 b 382 1315 394 1289 393 1305 l 65 1589 b 25 1584 53 1599 34 1597 l -114 1394 b -106 1355 -123 1381 -120 1363 l 235 1136 b 269 1141 246 1129 261 1131 m 27 -278 b 0 -251 12 -278 0 -266 l 0 1084 b 27 1111 0 1099 12 1111 l 363 1111 b 390 1084 378 1111 390 1099 l 390 -251 b 363 -278 390 -266 378 -278 "},"Í":{"ha":429,"x_min":0,"x_max":0,"o":"m 11 1277 b 14 1315 1 1289 3 1305 l 331 1589 b 370 1584 343 1599 361 1597 l 509 1394 b 502 1355 519 1381 515 1363 l 161 1136 b 126 1141 149 1129 135 1131 m 27 -278 b 0 -251 12 -278 0 -266 l 0 1084 b 27 1111 0 1099 12 1111 l 363 1111 b 390 1084 378 1111 390 1099 l 390 -251 b 363 -278 390 -266 378 -278 "},"Î":{"ha":431,"x_min":0,"x_max":0,"o":"m 176 1593 b 212 1593 186 1602 201 1602 l 527 1315 b 529 1278 538 1306 539 1289 l 414 1141 b 380 1136 406 1131 391 1129 l 192 1284 l 4 1136 b -31 1141 -8 1129 -23 1131 l -146 1278 b -144 1315 -156 1289 -155 1306 l 176 1593 m 27 -278 b 0 -251 12 -278 0 -266 l 0 1084 b 27 1111 0 1099 12 1111 l 363 1111 b 390 1084 378 1111 390 1099 l 390 -251 b 363 -278 390 -266 378 -278 "},"Ï":{"ha":431,"x_min":0,"x_max":0,"o":"m -222 1394 b -36 1581 -222 1497 -139 1581 b 151 1394 67 1581 151 1497 b -36 1208 151 1291 67 1208 b -222 1394 -139 1208 -222 1291 m 254 1394 b 441 1581 254 1497 338 1581 b 627 1394 544 1581 627 1497 b 441 1208 627 1291 544 1208 b 254 1394 338 1208 254 1291 m 27 -278 b 0 -251 12 -278 0 -266 l 0 1084 b 27 1111 0 1099 12 1111 l 363 1111 b 390 1084 378 1111 390 1099 l 390 -251 b 363 -278 390 -266 378 -278 "},"Ñ":{"ha":1264,"x_min":0,"x_max":0,"o":"m 218 1318 b 213 1354 207 1327 205 1342 b 481 1526 248 1402 345 1526 b 718 1435 591 1526 663 1435 b 835 1515 769 1435 812 1486 b 873 1520 844 1527 861 1530 l 1008 1408 b 1014 1374 1018 1400 1021 1385 b 748 1194 985 1323 896 1194 b 510 1289 632 1194 569 1289 b 392 1205 463 1289 416 1236 b 353 1201 383 1193 365 1191 l 218 1318 m 833 1084 b 860 1111 833 1099 845 1111 l 1196 1111 b 1223 1084 1211 1111 1223 1099 l 1223 -251 b 1196 -278 1223 -266 1211 -278 l 849 -278 b 825 -264 839 -278 830 -272 l 390 506 l 390 -251 b 363 -278 390 -266 378 -278 l 27 -278 b 0 -251 12 -278 0 -266 l 0 1084 b 27 1111 0 1099 12 1111 l 375 1111 b 398 1098 384 1111 393 1106 l 833 397 l 833 1084 "},"Ò":{"ha":1513,"x_min":0,"x_max":0,"o":"m 1037 1277 b 1034 1315 1047 1289 1045 1305 l 717 1589 b 678 1584 705 1599 687 1597 l 539 1394 b 546 1355 529 1381 533 1363 l 887 1136 b 922 1141 899 1129 913 1131 m 736 1132 b 1471 407 1142 1132 1471 807 b 736 -318 1471 6 1142 -318 b 0 407 329 -318 0 6 b 736 1132 0 807 329 1132 m 736 75 b 1072 407 921 75 1072 223 b 736 739 1072 590 921 739 b 399 407 550 739 399 590 b 736 75 399 223 550 75 "},"Ó":{"ha":1513,"x_min":0,"x_max":0,"o":"m 441 1277 b 444 1315 432 1289 433 1305 l 761 1589 b 801 1584 773 1599 792 1597 l 940 1394 b 932 1355 949 1381 946 1363 l 591 1136 b 556 1141 580 1129 565 1131 m 736 1132 b 1471 407 1142 1132 1471 807 b 736 -318 1471 6 1142 -318 b 0 407 329 -318 0 6 b 736 1132 0 807 329 1132 m 736 75 b 1072 407 921 75 1072 223 b 736 739 1072 590 921 739 b 399 407 550 739 399 590 b 736 75 399 223 550 75 "},"Ô":{"ha":1513,"x_min":0,"x_max":0,"o":"m 441 1277 b 444 1315 432 1289 433 1305 l 761 1589 b 801 1584 773 1599 792 1597 l 940 1394 b 932 1355 949 1381 946 1363 l 591 1136 b 556 1141 580 1129 565 1131 m 736 1132 b 1471 407 1142 1132 1471 807 b 736 -318 1471 6 1142 -318 b 0 407 329 -318 0 6 b 736 1132 0 807 329 1132 m 736 75 b 1072 407 921 75 1072 223 b 736 739 1072 590 921 739 b 399 407 550 739 399 590 b 736 75 399 223 550 75 "},"Õ":{"ha":1513,"x_min":0,"x_max":0,"o":"m 343 1318 b 338 1354 332 1327 330 1342 b 606 1526 373 1402 470 1526 b 843 1435 716 1526 788 1435 b 960 1515 894 1435 937 1486 b 998 1520 969 1527 986 1530 l 1133 1408 b 1139 1374 1143 1400 1146 1385 b 873 1194 1110 1323 1021 1194 b 635 1289 757 1194 694 1289 b 517 1205 588 1289 541 1236 b 478 1201 508 1193 490 1191 l 343 1318 m 736 1132 b 1471 407 1142 1132 1471 807 b 736 -318 1471 6 1142 -318 b 0 407 329 -318 0 6 b 736 1132 0 807 329 1132 m 736 75 b 1072 407 921 75 1072 223 b 736 739 1072 590 921 739 b 399 407 550 739 399 590 b 736 75 399 223 550 75 "},"Ö":{"ha":1513,"x_min":0,"x_max":0,"o":"m 310 1380 b 496 1567 310 1483 393 1567 b 683 1380 599 1567 683 1483 b 496 1194 683 1277 599 1194 b 310 1380 393 1194 310 1277 m 786 1380 b 972 1567 786 1483 870 1567 b 1159 1380 1075 1567 1159 1483 b 972 1194 1159 1277 1075 1194 b 786 1380 870 1194 786 1277 m 736 1132 b 1471 407 1142 1132 1471 807 b 736 -318 1471 6 1142 -318 b 0 407 329 -318 0 6 b 736 1132 0 807 329 1132 m 736 75 b 1072 407 921 75 1072 223 b 736 739 1072 590 921 739 b 399 407 550 739 399 590 b 736 75 399 223 550 75 "},"Ø":{"ha":1513,"x_min":0,"x_max":0,"o":"m 368 -288 b 354 -252 354 -282 348 -266 l 958 1117 b 994 1132 964 1131 980 1137 l 1064 1102 b 1079 1067 1078 1097 1084 1081 l 474 -303 b 438 -317 468 -316 452 -323 m 736 1132 b 1471 407 1142 1132 1471 807 b 736 -318 1471 6 1142 -318 b 0 407 329 -318 0 6 b 736 1132 0 807 329 1132 m 736 75 b 1072 407 921 75 1072 223 b 736 739 1072 590 921 739 b 399 407 550 739 399 590 b 736 75 399 223 550 75 "},"Ù":{"ha":1243,"x_min":0,"x_max":0,"o":"m 773 1277 b 771 1315 783 1289 781 1305 l 453 1589 b 414 1584 441 1599 423 1597 l 275 1394 b 282 1355 265 1381 269 1363 l 623 1136 b 658 1141 635 1129 650 1131 m 1175 1111 b 1202 1084 1190 1111 1202 1099 l 1202 250 b 601 -318 1202 -11 1056 -318 b 0 250 146 -318 0 -11 l 0 1084 b 27 1111 0 1099 12 1111 l 363 1111 b 390 1084 378 1111 390 1099 l 390 243 b 601 14 390 138 441 14 b 812 243 761 14 812 138 l 812 1084 b 839 1111 812 1099 824 1111 l 1175 1111 "},"Ú":{"ha":1243,"x_min":0,"x_max":0,"o":"m 441 1277 b 444 1315 432 1289 433 1305 l 761 1589 b 801 1584 773 1599 792 1597 l 940 1394 b 932 1355 949 1381 946 1363 l 591 1136 b 556 1141 580 1129 565 1131 m 1175 1111 b 1202 1084 1190 1111 1202 1099 l 1202 250 b 601 -318 1202 -11 1056 -318 b 0 250 146 -318 0 -11 l 0 1084 b 27 1111 0 1099 12 1111 l 363 1111 b 390 1084 378 1111 390 1099 l 390 243 b 601 14 390 138 441 14 b 812 243 761 14 812 138 l 812 1084 b 839 1111 812 1099 824 1111 l 1175 1111 "},"Û":{"ha":1243,"x_min":0,"x_max":0,"o":"m 441 1277 b 444 1315 432 1289 433 1305 l 761 1589 b 801 1584 773 1599 792 1597 l 940 1394 b 932 1355 949 1381 946 1363 l 591 1136 b 556 1141 580 1129 565 1131 m 1175 1111 b 1202 1084 1190 1111 1202 1099 l 1202 250 b 601 -318 1202 -11 1056 -318 b 0 250 146 -318 0 -11 l 0 1084 b 27 1111 0 1099 12 1111 l 363 1111 b 390 1084 378 1111 390 1099 l 390 243 b 601 14 390 138 441 14 b 812 243 761 14 812 138 l 812 1084 b 839 1111 812 1099 824 1111 l 1175 1111 "},"Ü":{"ha":1243,"x_min":0,"x_max":0,"o":"m 176 1380 b 363 1567 176 1483 260 1567 b 549 1380 466 1567 549 1483 b 363 1194 549 1277 466 1194 b 176 1380 260 1194 176 1277 m 653 1380 b 839 1567 653 1483 736 1567 b 1026 1380 942 1567 1026 1483 b 839 1194 1026 1277 942 1194 b 653 1380 736 1194 653 1277 m 1175 1111 b 1202 1084 1190 1111 1202 1099 l 1202 250 b 601 -318 1202 -11 1056 -318 b 0 250 146 -318 0 -11 l 0 1084 b 27 1111 0 1099 12 1111 l 363 1111 b 390 1084 378 1111 390 1099 l 390 243 b 601 14 390 138 441 14 b 812 243 761 14 812 138 l 812 1084 b 839 1111 812 1099 824 1111 l 1175 1111 "},"Ý":{"ha":1301,"x_min":0,"x_max":0,"o":"m 441 1277 b 444 1315 432 1289 433 1305 l 761 1589 b 801 1584 773 1599 792 1597 l 940 1394 b 932 1355 949 1381 946 1363 l 591 1136 b 556 1141 580 1129 565 1131 m 630 575 b 863 1084 644 575 856 557 b 890 1111 864 1099 876 1111 l 1233 1111 b 1260 1084 1248 1111 1260 1099 b 825 294 1260 379 825 294 l 825 -251 b 798 -278 825 -266 813 -278 l 462 -278 b 435 -251 447 -278 435 -266 l 435 294 b 0 1084 435 294 0 379 b 27 1111 0 1099 12 1111 l 369 1111 b 396 1084 384 1111 396 1099 b 630 575 404 557 616 575 "},"ß":{"ha":1136,"x_min":0,"x_max":0,"o":"m 390 774 b 404 788 390 782 396 788 l 529 788 b 631 685 585 788 631 742 b 529 582 631 628 585 582 l 496 582 b 482 569 489 582 482 576 l 482 265 b 496 251 482 257 489 251 l 592 251 b 695 148 649 251 695 205 b 592 46 695 91 649 46 l 568 46 b 541 19 553 46 541 33 l 541 -251 b 568 -278 541 -265 553 -278 l 731 -278 b 1095 165 922 -278 1095 -129 b 980 479 1095 358 981 478 b 1025 683 980 479 1025 532 b 653 1111 1025 967 854 1111 l 27 1111 b 0 1084 12 1111 0 1099 l 0 -251 b 27 -278 0 -266 13 -278 l 363 -278 b 390 -251 378 -278 390 -265 l 390 774 "},"à":{"ha":1076,"x_min":0,"x_max":0,"o":"m 747 842 b 744 880 757 853 755 870 l 427 1153 b 388 1149 415 1164 397 1162 l 249 959 b 256 919 239 946 243 928 l 597 701 b 632 706 609 693 623 696 m 1009 655 b 1036 628 1024 655 1036 643 l 1036 -271 b 1009 -298 1036 -286 1024 -298 l 646 -298 l 646 -296 b 497 -318 599 -310 549 -318 b 3 233 205 -318 -29 -66 b 455 674 28 468 220 655 b 646 653 522 680 587 672 l 646 655 m 497 39 b 637 179 574 39 637 102 b 497 318 637 256 574 318 b 358 179 420 318 358 256 b 497 39 358 102 420 39 "},"á":{"ha":1076,"x_min":0,"x_max":0,"o":"m 249 842 b 251 880 239 853 240 870 l 568 1153 b 608 1149 580 1164 599 1162 l 747 959 b 739 919 756 946 753 928 l 398 701 b 364 706 387 693 372 696 m 1009 655 b 1036 628 1024 655 1036 643 l 1036 -271 b 1009 -298 1036 -286 1024 -298 l 646 -298 l 646 -296 b 497 -318 599 -310 549 -318 b 3 233 205 -318 -29 -66 b 455 674 28 468 220 655 b 646 653 522 680 587 672 l 646 655 m 497 39 b 637 179 574 39 637 102 b 497 318 637 256 574 318 b 358 179 420 318 358 256 b 497 39 358 102 420 39 "},"â":{"ha":1076,"x_min":0,"x_max":0,"o":"m 517 1136 b 552 1136 527 1145 542 1145 l 867 858 b 870 821 879 849 880 832 l 755 684 b 720 679 747 674 732 672 l 532 827 l 344 679 b 310 684 333 672 318 674 l 194 821 b 197 858 185 832 186 849 l 517 1136 m 1009 655 b 1036 628 1024 655 1036 643 l 1036 -271 b 1009 -298 1036 -286 1024 -298 l 646 -298 l 646 -296 b 497 -318 599 -310 549 -318 b 3 233 205 -318 -29 -66 b 455 674 28 468 220 655 b 646 653 522 680 587 672 l 646 655 m 497 39 b 637 179 574 39 637 102 b 497 318 637 256 574 318 b 358 179 420 318 358 256 b 497 39 358 102 420 39 "},"ã":{"ha":1076,"x_min":0,"x_max":0,"o":"m 146 944 b 141 980 135 953 133 969 b 409 1152 175 1028 273 1152 b 646 1061 518 1152 591 1061 b 762 1142 697 1061 740 1112 b 801 1146 771 1154 789 1156 l 936 1034 b 942 1000 946 1026 949 1011 b 676 821 913 949 824 821 b 438 916 560 821 496 916 b 320 831 390 916 344 863 b 281 827 311 819 293 817 l 146 944 m 1009 655 b 1036 628 1024 655 1036 643 l 1036 -271 b 1009 -298 1036 -286 1024 -298 l 646 -298 l 646 -296 b 497 -318 599 -310 549 -318 b 3 233 205 -318 -29 -66 b 455 674 28 468 220 655 b 646 653 522 680 587 672 l 646 655 m 497 39 b 637 179 574 39 637 102 b 497 318 637 256 574 318 b 358 179 420 318 358 256 b 497 39 358 102 420 39 "},"ä":{"ha":1076,"x_min":0,"x_max":0,"o":"m 132 945 b 318 1132 132 1048 215 1132 b 505 945 421 1132 505 1048 b 318 759 505 842 421 759 b 132 945 215 759 132 842 m 608 945 b 794 1132 608 1048 691 1132 b 981 945 897 1132 981 1048 b 794 759 981 842 897 759 b 608 945 691 759 608 842 m 1009 655 b 1036 628 1024 655 1036 643 l 1036 -271 b 1009 -298 1036 -286 1024 -298 l 646 -298 l 646 -296 b 497 -318 599 -310 549 -318 b 3 233 205 -318 -29 -66 b 455 674 28 468 220 655 b 646 653 522 680 587 672 l 646 655 m 497 39 b 637 179 574 39 637 102 b 497 318 637 256 574 318 b 358 179 420 318 358 256 b 497 39 358 102 420 39 "},"å":{"ha":1076,"x_min":0,"x_max":0,"o":"m 549 1194 b 774 977 673 1194 774 1097 b 549 760 774 857 673 760 b 324 977 425 760 324 857 b 549 1194 324 1097 425 1194 m 549 916 b 612 977 584 916 612 943 b 549 1038 612 1011 584 1038 b 486 977 514 1038 486 1011 b 549 916 486 943 514 916 m 1009 655 b 1036 628 1024 655 1036 643 l 1036 -271 b 1009 -298 1036 -286 1024 -298 l 646 -298 l 646 -296 b 497 -318 599 -310 549 -318 b 3 233 205 -318 -29 -66 b 455 674 28 468 220 655 b 646 653 522 680 587 672 l 646 655 m 497 39 b 637 179 574 39 637 102 b 497 318 637 256 574 318 b 358 179 420 318 358 256 b 497 39 358 102 420 39 "},"æ":{"ha":1775,"x_min":0,"x_max":0,"o":"m 1678 417 b 1734 184 1710 349 1731 271 b 1712 156 1734 171 1725 159 l 1175 38 b 1251 20 1198 26 1224 20 b 1374 64 1295 20 1342 36 b 1414 59 1386 74 1405 73 l 1561 -158 b 1557 -194 1569 -169 1567 -185 b 1225 -318 1468 -271 1352 -318 b 976 -253 1135 -318 1050 -295 l 976 -270 b 948 -297 976 -285 964 -297 l 660 -297 l 660 -295 b 508 -318 612 -310 561 -318 b 3 245 209 -318 -29 -60 b 465 695 28 484 225 675 b 660 673 533 701 599 693 l 660 675 l 948 675 b 976 648 964 675 976 663 l 976 631 b 1225 697 1049 673 1134 697 b 1678 417 1422 697 1593 592 m 508 47 b 650 189 586 47 650 111 b 508 331 650 267 586 331 b 365 189 429 331 365 268 b 508 47 365 111 429 47 m 1385 353 b 1387 366 1391 354 1392 362 b 1288 395 1361 384 1328 395 b 1115 306 1216 395 1144 358 b 1122 296 1112 301 1116 294 l 1385 353 "},"ç":{"ha":874,"x_min":0,"x_max":0,"o":"m 827 -161 b 823 -196 835 -172 833 -187 b 551 -316 748 -261 654 -304 l 544 -345 b 692 -483 544 -345 723 -332 b 488 -625 666 -615 536 -625 b 362 -619 461 -625 387 -621 b 356 -610 358 -619 355 -615 l 381 -520 b 393 -512 382 -514 388 -511 b 502 -526 410 -517 448 -526 b 565 -483 544 -526 561 -500 b 515 -453 568 -466 556 -453 b 401 -456 481 -453 423 -455 b 394 -447 396 -456 393 -452 l 421 -313 b 3 236 165 -273 -27 -38 b 442 673 28 464 213 648 b 823 554 588 689 723 641 b 827 519 833 545 835 530 l 683 305 b 644 301 674 292 656 291 b 523 344 612 328 566 344 b 358 179 432 344 358 270 b 523 14 358 88 432 14 b 644 57 566 14 612 30 b 683 52 656 67 674 66 "},"è":{"ha":1035,"x_min":0,"x_max":0,"o":"m 940 402 b 994 174 972 336 991 259 b 973 147 995 161 986 149 l 447 31 b 522 13 469 20 495 13 b 642 56 565 13 610 29 b 681 52 654 66 672 65 l 825 -161 b 821 -197 833 -173 831 -188 b 496 -318 734 -272 621 -318 b 0 180 221 -318 -1 -95 b 0 182 0 181 0 181 b 2 222 0 195 1 209 b 496 676 24 476 236 676 b 940 402 689 676 857 574 m 558 381 b 388 293 487 381 417 345 b 396 283 385 288 390 282 l 653 339 b 655 352 659 341 660 348 b 558 381 630 370 597 381 m 747 842 b 744 880 757 853 755 870 l 427 1153 b 388 1149 415 1164 397 1162 l 249 959 b 256 919 239 946 243 928 l 597 701 b 632 706 609 693 623 696 "},"é":{"ha":1035,"x_min":0,"x_max":0,"o":"m 940 402 b 994 174 972 336 991 259 b 973 147 995 161 986 149 l 447 31 b 522 13 469 20 495 13 b 642 56 565 13 610 29 b 681 52 654 66 672 65 l 825 -161 b 821 -197 833 -173 831 -188 b 496 -318 734 -272 621 -318 b 0 180 221 -318 -1 -95 b 0 182 0 181 0 181 b 2 222 0 195 1 209 b 496 676 24 476 236 676 b 940 402 689 676 857 574 m 558 381 b 388 293 487 381 417 345 b 396 283 385 288 390 282 l 653 339 b 655 352 659 341 660 348 b 558 381 630 370 597 381 m 249 842 b 251 880 239 853 240 870 l 568 1153 b 608 1149 580 1164 599 1162 l 747 959 b 739 919 756 946 753 928 l 398 701 b 364 706 387 693 372 696 "},"ê":{"ha":1035,"x_min":0,"x_max":0,"o":"m 475 1136 b 511 1136 485 1145 501 1145 l 826 858 b 829 821 837 849 838 832 l 714 684 b 679 679 705 674 690 672 l 491 827 l 303 679 b 268 684 291 672 277 674 l 153 821 b 156 858 143 832 145 849 l 475 1136 m 940 402 b 994 174 972 336 991 259 b 973 147 995 161 986 149 l 447 31 b 522 13 469 20 495 13 b 642 56 565 13 610 29 b 681 52 654 66 672 65 l 825 -161 b 821 -197 833 -173 831 -188 b 496 -318 734 -272 621 -318 b 0 180 221 -318 -1 -95 b 0 182 0 181 0 181 b 2 222 0 195 1 209 b 496 676 24 476 236 676 b 940 402 689 676 857 574 m 558 381 b 388 293 487 381 417 345 b 396 283 385 288 390 282 l 653 339 b 655 352 659 341 660 348 b 558 381 630 370 597 381 "},"ë":{"ha":1035,"x_min":0,"x_max":0,"o":"m 69 945 b 256 1132 69 1048 153 1132 b 442 945 359 1132 442 1048 b 256 759 442 842 359 759 b 69 945 153 759 69 842 m 545 945 b 732 1132 545 1048 629 1132 b 918 945 835 1132 918 1048 b 732 759 918 842 835 759 b 545 945 629 759 545 842 m 940 402 b 994 174 972 336 991 259 b 973 147 995 161 986 149 l 447 31 b 522 13 469 20 495 13 b 642 56 565 13 610 29 b 681 52 654 66 672 65 l 825 -161 b 821 -197 833 -173 831 -188 b 496 -318 734 -272 621 -318 b 0 180 221 -318 -1 -95 b 0 182 0 181 0 181 b 2 222 0 195 1 209 b 496 676 24 476 236 676 b 940 402 689 676 857 574 m 558 381 b 388 293 487 381 417 345 b 396 283 385 288 390 282 l 653 339 b 655 352 659 341 660 348 b 558 381 630 370 597 381 "},"ì":{"ha":431,"x_min":0,"x_max":0,"o":"m 344 842 b 342 880 354 853 353 870 l 24 1153 b -15 1149 13 1164 -6 1162 l -154 959 b -146 919 -164 946 -160 928 l 195 701 b 229 706 206 693 221 696 m 27 -278 b 0 -251 12 -278 0 -266 l 0 628 b 27 655 0 643 12 655 l 363 655 b 390 628 378 655 390 643 l 390 -251 b 363 -278 390 -266 378 -278 "},"í":{"ha":431,"x_min":0,"x_max":0,"o":"m 40 842 b 43 880 31 853 32 870 l 360 1153 b 400 1149 372 1164 390 1162 l 539 959 b 531 919 548 946 544 928 l 190 701 b 155 706 179 693 164 696 m 27 -278 b 0 -251 12 -278 0 -266 l 0 628 b 27 655 0 643 12 655 l 363 655 b 390 628 378 655 390 643 l 390 -251 b 363 -278 390 -266 378 -278 "},"î":{"ha":431,"x_min":0,"x_max":0,"o":"m 175 1136 b 211 1136 185 1145 201 1145 l 526 858 b 529 821 537 849 538 832 l 414 684 b 379 679 405 674 390 672 l 191 827 l 3 679 b -32 684 -9 672 -23 674 l -147 821 b -144 858 -157 832 -155 849 l 175 1136 m 27 -278 b 0 -251 12 -278 0 -266 l 0 628 b 27 655 0 643 12 655 l 363 655 b 390 628 378 655 390 643 l 390 -251 b 363 -278 390 -266 378 -278 "},"ï":{"ha":431,"x_min":0,"x_max":0,"o":"m -230 945 b -43 1132 -230 1048 -146 1132 b 143 945 60 1132 143 1048 b -43 759 143 842 60 759 b -230 945 -146 759 -230 842 m 247 945 b 433 1132 247 1048 330 1132 b 620 945 536 1132 620 1048 b 433 759 620 842 536 759 b 247 945 330 759 247 842 m 27 -278 b 0 -251 12 -278 0 -266 l 0 628 b 27 655 0 643 12 655 l 363 655 b 390 628 378 655 390 643 l 390 -251 b 363 -278 390 -266 378 -278 "},"ñ":{"ha":953,"x_min":0,"x_max":0,"o":"m 567 -277 b 541 -251 552 -277 541 -265 l 541 302 b 533 333 541 313 538 324 b 477 367 522 353 501 367 b 415 302 443 367 415 338 l 415 -251 b 388 -278 415 -266 403 -278 l 27 -278 b 0 -251 12 -278 0 -266 l 0 649 b 27 676 0 664 12 676 l 296 676 b 456 696 344 689 397 696 b 912 286 756 696 912 513 l 912 -251 b 885 -278 912 -266 900 -278 m 51 944 b 47 980 41 953 39 969 b 315 1152 81 1028 178 1152 b 552 1061 424 1152 497 1061 b 668 1142 602 1061 646 1112 b 706 1146 677 1154 694 1156 l 841 1034 b 848 1000 851 1026 854 1011 b 581 821 818 949 729 821 b 343 916 465 821 402 916 b 225 831 296 916 249 863 b 186 827 216 819 198 817 l 51 944 "},"ò":{"ha":1036,"x_min":0,"x_max":0,"o":"m 747 842 b 744 880 757 853 755 870 l 427 1153 b 388 1149 415 1164 397 1162 l 249 959 b 256 919 239 946 243 928 l 597 701 b 632 706 609 693 623 696 m 497 676 b 994 179 772 676 995 453 b 497 -318 994 -96 772 -318 b 0 179 223 -318 0 -96 b 497 676 0 453 223 676 m 497 39 b 637 179 574 39 637 102 b 497 318 637 256 574 318 b 358 179 420 318 358 256 b 497 39 358 102 420 39 "},"ó":{"ha":1036,"x_min":0,"x_max":0,"o":"m 249 842 b 251 880 239 853 240 870 l 568 1153 b 608 1149 580 1164 599 1162 l 747 959 b 739 919 756 946 753 928 l 398 701 b 364 706 387 693 372 696 m 497 676 b 994 179 772 676 995 453 b 497 -318 994 -96 772 -318 b 0 179 223 -318 0 -96 b 497 676 0 453 223 676 m 497 39 b 637 179 574 39 637 102 b 497 318 637 256 574 318 b 358 179 420 318 358 256 b 497 39 358 102 420 39 "},"ô":{"ha":1036,"x_min":0,"x_max":0,"o":"m 481 1136 b 516 1136 491 1145 506 1145 l 831 858 b 834 821 842 849 844 832 l 719 684 b 684 679 710 674 696 672 l 496 827 l 308 679 b 274 684 297 672 282 674 l 158 821 b 161 858 149 832 150 849 l 481 1136 m 497 676 b 994 179 772 676 995 453 b 497 -318 994 -96 772 -318 b 0 179 223 -318 0 -96 b 497 676 0 453 223 676 m 497 39 b 637 179 574 39 637 102 b 497 318 637 256 574 318 b 358 179 420 318 358 256 b 497 39 358 102 420 39 "},"õ":{"ha":1036,"x_min":0,"x_max":0,"o":"m 100 944 b 95 980 89 953 87 969 b 363 1152 129 1028 227 1152 b 600 1061 472 1152 545 1061 b 716 1142 651 1061 694 1112 b 755 1146 726 1154 743 1156 l 890 1034 b 896 1000 900 1026 903 1011 b 630 821 867 949 778 821 b 392 916 514 821 450 916 b 274 831 345 916 298 863 b 235 827 265 819 247 817 l 100 944 m 497 676 b 994 179 772 676 995 453 b 497 -318 994 -96 772 -318 b 0 179 223 -318 0 -96 b 497 676 0 453 223 676 m 497 39 b 637 179 574 39 637 102 b 497 318 637 256 574 318 b 358 179 420 318 358 256 b 497 39 358 102 420 39 "},"ö":{"ha":1036,"x_min":0,"x_max":0,"o":"m 70 945 b 257 1132 70 1048 154 1132 b 443 945 360 1132 443 1048 b 257 759 443 842 360 759 b 70 945 154 759 70 842 m 547 945 b 733 1132 547 1048 630 1132 b 920 945 836 1132 920 1048 b 733 759 920 842 836 759 b 547 945 630 759 547 842 m 497 676 b 994 179 772 676 995 453 b 497 -318 994 -96 772 -318 b 0 179 223 -318 0 -96 b 497 676 0 453 223 676 m 497 39 b 637 179 574 39 637 102 b 497 318 637 256 574 318 b 358 179 420 318 358 256 b 497 39 358 102 420 39 "},"÷":{"ha":1093,"x_min":0,"x_max":0,"o":"m 346 10 b 543 207 346 119 434 207 b 739 10 651 207 739 119 b 543 -187 739 -98 651 -187 b 346 10 434 -187 346 -98 m 346 813 b 543 1010 346 922 434 1010 b 739 813 651 1010 739 922 b 543 616 739 704 651 616 b 346 813 434 616 346 704 m 131 251 b 104 278 117 251 104 263 l 104 551 b 131 578 104 566 117 578 l 963 578 b 989 551 978 578 989 566 l 989 278 b 963 251 989 263 978 251 l 131 251 "},"ø":{"ha":1036,"x_min":0,"x_max":0,"o":"m 497 676 b 994 179 772 676 995 453 b 497 -318 994 -96 772 -318 b 0 179 223 -318 0 -96 b 497 676 0 453 223 676 m 497 39 b 637 179 574 39 637 102 b 497 318 637 256 574 318 b 358 179 420 318 358 256 b 497 39 358 102 420 39 "},"ù":{"ha":929,"x_min":0,"x_max":0,"o":"m 747 842 b 744 880 757 853 755 870 l 427 1153 b 388 1149 415 1164 397 1162 l 249 959 b 256 919 239 946 243 928 l 597 701 b 632 706 609 693 623 696 m 345 654 b 371 627 359 653 371 642 l 371 76 b 379 44 371 64 374 54 b 434 10 390 24 411 10 b 497 76 469 10 497 40 l 497 627 b 524 654 497 642 509 654 l 862 655 b 889 628 877 655 889 643 l 889 -270 b 862 -297 889 -285 877 -297 l 615 -298 b 455 -318 567 -311 514 -318 b 0 91 156 -318 0 -135 l 0 627 b 27 654 0 642 12 654 "},"ú":{"ha":929,"x_min":0,"x_max":0,"o":"m 249 842 b 251 880 239 853 240 870 l 568 1153 b 608 1149 580 1164 599 1162 l 747 959 b 739 919 756 946 753 928 l 398 701 b 364 706 387 693 372 696 m 345 654 b 371 627 359 653 371 642 l 371 76 b 379 44 371 64 374 54 b 434 10 390 24 411 10 b 497 76 469 10 497 40 l 497 627 b 524 654 497 642 509 654 l 862 655 b 889 628 877 655 889 643 l 889 -270 b 862 -297 889 -285 877 -297 l 615 -298 b 455 -318 567 -311 514 -318 b 0 91 156 -318 0 -135 l 0 627 b 27 654 0 642 12 654 "},"û":{"ha":929,"x_min":0,"x_max":0,"o":"m 422 1136 b 458 1136 432 1145 448 1145 l 773 858 b 776 821 784 849 785 832 l 661 684 b 626 679 652 674 637 672 l 438 827 l 250 679 b 215 684 239 672 224 674 l 100 821 b 103 858 91 832 92 849 l 422 1136 m 345 654 b 371 627 359 653 371 642 l 371 76 b 379 44 371 64 374 54 b 434 10 390 24 411 10 b 497 76 469 10 497 40 l 497 627 b 524 654 497 642 509 654 l 862 655 b 889 628 877 655 889 643 l 889 -270 b 862 -297 889 -285 877 -297 l 615 -298 b 455 -318 567 -311 514 -318 b 0 91 156 -318 0 -135 l 0 627 b 27 654 0 642 12 654 "},"ü":{"ha":929,"x_min":0,"x_max":0,"o":"m 20 945 b 206 1132 20 1048 103 1132 b 393 945 309 1132 393 1048 b 206 759 393 842 309 759 b 20 945 103 759 20 842 m 496 945 b 683 1132 496 1048 580 1132 b 869 945 786 1132 869 1048 b 683 759 869 842 786 759 b 496 945 580 759 496 842 m 345 654 b 371 627 359 653 371 642 l 371 76 b 379 44 371 64 374 54 b 434 10 390 24 411 10 b 497 76 469 10 497 40 l 497 627 b 524 654 497 642 509 654 l 862 655 b 889 628 877 655 889 643 l 889 -270 b 862 -297 889 -285 877 -297 l 615 -298 b 455 -318 567 -311 514 -318 b 0 91 156 -318 0 -135 l 0 627 b 27 654 0 642 12 654 "},"ý":{"ha":1121,"x_min":0,"x_max":0,"o":"m 360 842 b 362 880 350 853 351 870 l 680 1153 b 719 1149 691 1164 710 1162 l 858 959 b 850 919 868 946 864 928 l 509 701 b 475 706 498 693 483 696 m 540 106 b 677 628 544 106 672 90 b 704 655 677 643 689 655 l 1053 655 b 1080 628 1068 655 1080 643 b 69 -768 1068 -653 235 -759 b 41 -741 54 -769 41 -756 l 41 -430 b 62 -404 41 -417 50 -406 b 407 -199 138 -384 407 -309 b 0 628 407 -199 8 -256 b 27 655 0 643 12 655 l 376 655 b 403 628 391 655 403 643 b 540 106 407 90 536 106 "},"ÿ":{"ha":1121,"x_min":0,"x_max":0,"o":"m 114 945 b 300 1132 114 1048 197 1132 b 487 945 403 1132 487 1048 b 300 759 487 842 403 759 b 114 945 197 759 114 842 m 590 945 b 776 1132 590 1048 673 1132 b 963 945 879 1132 963 1048 b 776 759 963 842 879 759 b 590 945 673 759 590 842 m 540 106 b 677 628 544 106 672 90 b 704 655 677 643 689 655 l 1053 655 b 1080 628 1068 655 1080 643 b 69 -768 1068 -653 235 -759 b 41 -741 54 -769 41 -756 l 41 -430 b 62 -404 41 -417 50 -406 b 407 -199 138 -384 407 -309 b 0 628 407 -199 8 -256 b 27 655 0 643 12 655 l 376 655 b 403 628 391 655 403 643 b 540 106 407 90 536 106 "},"Œ":{"ha":1796,"x_min":0,"x_max":0,"o":"m 1260 54 l 1714 54 b 1741 26 1729 54 1741 41 l 1741 -251 b 1714 -278 1741 -266 1729 -278 l 979 -278 b 736 -318 903 -304 821 -318 b 0 407 329 -318 0 6 b 736 1132 0 807 329 1132 b 911 1111 796 1132 854 1125 l 1714 1111 b 1741 1084 1729 1111 1741 1099 l 1741 807 b 1714 780 1741 792 1729 780 l 1260 780 l 1260 582 l 1652 582 b 1679 555 1667 582 1679 570 l 1679 278 b 1652 251 1679 263 1667 251 l 1260 251 l 1260 53 m 399 407 b 736 75 399 223 550 75 b 870 102 784 75 829 85 l 870 711 b 736 739 829 729 783 739 b 399 407 550 739 399 590 "},"œ":{"ha":1744,"x_min":0,"x_max":0,"o":"m 1634 417 b 1690 184 1667 349 1687 271 b 1668 156 1691 171 1681 159 l 1131 38 b 1208 20 1154 26 1180 20 b 1331 64 1251 20 1298 36 b 1370 59 1343 74 1361 73 l 1518 -158 b 1514 -194 1525 -169 1524 -185 b 1182 -318 1425 -271 1309 -318 b 845 -190 1052 -318 934 -270 b 508 -318 755 -270 637 -318 b 0 189 227 -318 0 -91 b 508 697 0 469 227 696 b 845 568 637 697 755 648 b 1182 697 934 648 1052 697 b 1634 417 1378 697 1550 592 m 508 47 b 650 189 586 47 650 111 b 508 331 650 267 586 331 b 365 189 429 331 365 268 b 508 47 365 111 429 47 m 1342 353 b 1344 366 1348 354 1349 362 b 1245 395 1318 384 1285 395 b 1072 306 1172 395 1101 358 b 1079 296 1069 301 1073 294 l 1342 353 "},"™":{"ha":828,"x_min":0,"x_max":0,"o":"m 625 1109 b 630 1111 626 1111 628 1111 l 718 1111 b 724 1104 721 1111 724 1108 l 724 771 b 718 764 724 767 721 764 l 634 764 b 627 771 630 764 627 767 l 627 939 l 601 831 b 595 825 600 828 598 825 l 507 825 b 500 831 504 825 501 828 l 475 939 l 475 771 b 468 764 475 767 472 764 l 384 764 b 377 771 380 764 377 767 l 377 1104 b 384 1111 377 1108 380 1111 l 472 1111 b 477 1109 474 1111 475 1110 b 551 961 508 1078 551 961 b 625 1109 551 961 593 1078 m 368 1035 b 361 1028 368 1031 365 1028 l 285 1028 l 285 771 b 278 764 285 767 282 764 l 194 764 b 187 771 190 764 187 767 l 187 1028 l 111 1028 b 104 1035 107 1028 104 1031 l 104 1104 b 111 1111 104 1108 107 1111 l 361 1111 b 368 1104 365 1111 368 1108 "}}}
